<?xml version="1.0" encoding="UTF-8"?>
<svg version="1.1" xmlns="http://www.w3.org/2000/svg" width="1024" height="1024" viewBox="0 0 1024 1024">
<path d="M0 0 C1.87469099 0.35579868 3.74965236 0.71017877 5.625 1.0625 C9.2082435 1.7416346 12.54552539 2.8328902 16 4 C17.65708984 4.48146484 17.65708984 4.48146484 19.34765625 4.97265625 C41.39803967 11.44169618 61.68743942 21.64949829 81 34 C81.57008789 34.3619043 82.14017578 34.72380859 82.72753906 35.09667969 C90.24890213 39.8883465 90.24890213 39.8883465 93 42 C93 42.66 93 43.32 93 44 C93.74636719 44.26192139 94.49273438 44.52384277 95.26171875 44.79370117 C98.03006187 46.0132432 99.64296757 47.22402488 101.8125 49.30078125 C102.49570312 49.94853516 103.17890625 50.59628906 103.8828125 51.26367188 C104.58148437 51.93978516 105.28015625 52.61589844 106 53.3125 C106.69867187 53.97701172 107.39734375 54.64152344 108.1171875 55.32617188 C110.08883951 57.20668148 112.04520861 59.10199759 114 61 C114.53238281 61.50321777 115.06476562 62.00643555 115.61328125 62.52490234 C116.78039805 63.64475913 117.89682472 64.81710307 119 66 C119 66.66 119 67.32 119 68 C119.5775 68.226875 120.155 68.45375 120.75 68.6875 C123.59739809 70.34848222 125.12067193 72.31524561 127 75 C127 75.66 127 76.32 127 77 C127.66 77 128.32 77 129 77 C130.69921875 79.23828125 130.69921875 79.23828125 132.6875 82.3125 C133.40421875 83.41851562 134.1209375 84.52453125 134.859375 85.6640625 C135.91898438 87.31535156 135.91898438 87.31535156 137 89 C137.87398437 90.31097656 137.87398437 90.31097656 138.765625 91.6484375 C165.16000645 131.7333626 174.46339297 181.00025525 165.41552734 228.03857422 C159.81458157 254.36521581 149.52703488 279.84882484 133.53515625 301.625 C127.80695661 310.48694753 124.76112841 320.49047138 126 331 C130.56263071 344.23352226 141.2284853 352.02940036 153.1875 358.375 C171.29756097 366.7071499 191.48534379 365.18118591 210.06640625 359.203125 C214.66053667 357.31898097 218.78067092 354.80620712 220.81640625 350.12109375 C221.0706119 347.18420716 220.09191784 345.63001318 218.6875 343.0625 C216.90613509 339.76008426 215.33693191 336.50866167 214 333 C212.865625 333.144375 211.73125 333.28875 210.5625 333.4375 C209.83289063 333.52515625 209.10328125 333.6128125 208.3515625 333.703125 C206.80159973 333.89880136 205.25429856 334.11707258 203.7109375 334.359375 C198.63207786 335.09240629 194.84816627 335.05114727 190 333 C185.48832148 329.51370296 183.10527103 325.5518614 182 320 C180.49837871 304.08647681 184.70567843 291.46714133 194.55078125 279.04296875 C204.68707074 267.90059593 218.54427701 262.70614797 233.234375 261.625 C250.79768495 260.85647945 265.58932675 266.23092094 279.63671875 276.703125 C280.08660156 277.13109375 280.53648437 277.5590625 281 278 C281 278.66 281 279.32 281 280 C281.66 280 282.32 280 283 280 C283 280.66 283 281.32 283 282 C283.66 282 284.32 282 285 282 C286.55167994 283.86262563 287.94034774 285.69740064 289.3125 287.6875 C289.71549316 288.27184814 290.11848633 288.85619629 290.53369141 289.45825195 C294.40286125 295.2760311 296.85643509 301.35832446 299 308 C299.30679688 308.92167969 299.61359375 309.84335937 299.9296875 310.79296875 C305.48262743 328.27150823 304.88730078 349.44701833 300 367 C299.81824219 367.83144531 299.63648438 368.66289063 299.44921875 369.51953125 C295.20371427 386.93476392 282.2525727 406.29965874 267.625 416.5 C265 418 265 418 263 418 C263 418.66 263 419.32 263 420 C253.71018502 427.13969879 242.91739073 431.07905159 232 435 C234.03436759 437.5880246 236.01353528 440.01317909 238.375 442.3125 C252.26433976 456.53253833 259.09369852 475.33736604 259 495 C258.55478968 510.47105872 251.99161475 525.02808349 241 536 C228.74538956 546.85243714 215.70014732 550.17906259 199.8125 550.1875 C198.61818359 550.19974609 197.42386719 550.21199219 196.19335938 550.22460938 C181.51826167 550.24883904 168.88120507 546.74842015 157.98046875 536.32421875 C152.26962765 529.62214685 148.99413529 522.28083652 149.54296875 513.41015625 C150.46120299 508.56784407 152.98731209 505.93673632 156.5 502.6875 C160.92020933 499.7038587 164.69632407 499.6464216 170 500 C173.84166921 501.04120007 177.10858264 502.26139705 180.1875 504.8125 C181.98438102 506.27038258 181.98438102 506.27038258 184.4375 505.6875 C188.25925571 503.17073405 190.28611244 500.22852588 192 496 C192.86920327 491.12946443 192.50776664 487.28150628 190.6875 482.6875 C181.12745575 473.12745575 165.57772682 472.55704103 152.9375 470.875 C151.58133289 470.69175609 150.22521266 470.50816491 148.86914062 470.32421875 C145.5798703 469.87940639 142.29017067 469.43809424 139 469 C138.9575415 469.71212646 138.91508301 470.42425293 138.87133789 471.15795898 C137.88864961 484.65543813 132.3858065 496.40388828 122.2578125 505.578125 C120.65528512 507.06605027 120.65528512 507.06605027 121.0625 510.0625 C121.63515962 513.08312217 122.6723445 515.73927782 123.875 518.5625 C130.49403343 534.6510995 131.69234169 553.01598803 125.5390625 569.41015625 C119.50984751 583.47322371 110.13852276 591.90245609 96.58984375 598.58984375 C88.41983012 601.79917446 80.72985657 602.33984917 72 602.3125 C70.45699219 602.33666992 70.45699219 602.33666992 68.8828125 602.36132812 C56.44337613 602.36924125 46.47668552 597.99214036 37 590 C31.11854029 583.62841865 27.62606064 576.90554383 27.7890625 568.15234375 C28.31491621 562.78668829 30.04240656 559.07159266 33.625 555.0625 C38.56954522 552.04083348 42.78160069 551.3288646 48.47265625 552.515625 C52.54242765 553.75971772 55.04137725 554.9240381 58 558 C60.10332891 558.71447643 60.10332891 558.71447643 62 559 C63.59077888 554.22766335 64.08883158 549.42727673 62.01171875 544.796875 C57.98565936 538.30981592 51.9046281 531.45231405 45 528 C45 527.34 45 526.68 45 526 C44.28972656 525.72671875 43.57945312 525.4534375 42.84765625 525.171875 C39.9664066 523.98617556 37.21709024 522.65681302 34.4375 521.25 C31.21909629 519.62294017 28.00050163 518.00024567 24.76171875 516.4140625 C14.07873494 511.1723494 14.07873494 511.1723494 10 508 C10 507.34 10 506.68 10 506 C9.4225 505.75894531 8.845 505.51789063 8.25 505.26953125 C5.57055854 503.75769362 4.00387242 502.01621893 2 499.6875 C1.34 498.92824219 0.68 498.16898438 0 497.38671875 C-0.66 496.59910156 -1.32 495.81148437 -2 495 C-3.01320313 493.80890625 -3.01320313 493.80890625 -4.046875 492.59375 C-6.16236697 489.78437667 -7.69864813 486.96613195 -9.25 483.8125 C-9.77078125 482.76707031 -10.2915625 481.72164062 -10.828125 480.64453125 C-12 478 -12 478 -12 476 C-12.66 476 -13.32 476 -14 476 C-14.26941406 476.70125 -14.53882813 477.4025 -14.81640625 478.125 C-16.06530043 481.15861754 -17.46745851 484.06739814 -18.9375 487 C-19.44152344 488.010625 -19.94554687 489.02125 -20.46484375 490.0625 C-22.66706495 494.27641944 -25.16271526 498.28649189 -27.6875 502.3125 C-28.12449219 503.00988281 -28.56148437 503.70726562 -29.01171875 504.42578125 C-29.33785156 504.94527344 -29.66398437 505.46476562 -30 506 C-27.51111978 508.48888022 -25.47517776 508.87299508 -22.125 509.9375 C-12.54728719 513.52648773 -3.84277792 520.7556791 1.04296875 529.88671875 C1.35878906 530.58410156 1.67460938 531.28148437 2 532 C2.58201172 533.21623047 2.58201172 533.21623047 3.17578125 534.45703125 C7.77398516 545.75502368 8.00497818 559.76892797 3.875 571.25 C1.54832521 576.37657157 -1.2556645 580.80272069 -5 585 C-5.7425 585.845625 -6.485 586.69125 -7.25 587.5625 C-20.04143872 598.90036614 -36.683787 604.95995404 -53.9375 604.34375 C-71.0213205 602.42617831 -87.24753673 597.29598955 -99 584 C-99 583.34 -99 582.68 -99 582 C-99.66 582 -100.32 582 -101 582 C-117.44560066 559.04600525 -118.40124367 532.09834936 -115.18359375 505.02368164 C-115.00209312 503.0230716 -115 501.00882628 -115 499 C-116.12535156 499.99580078 -116.12535156 499.99580078 -117.2734375 501.01171875 C-123.51225058 506.43780107 -129.36262094 510.7061997 -137 514 C-139.46632235 515.07904965 -141.92984225 516.16398466 -144.390625 517.25561523 C-146.12464482 518.02264648 -147.86274657 518.78053964 -149.60546875 519.52758789 C-155.52577864 522.12526305 -160.71114647 525.29883349 -166 529 C-166.67160156 529.43183594 -167.34320313 529.86367188 -168.03515625 530.30859375 C-170.66600501 532.04268503 -172.72945941 533.57654517 -174.4375 536.25 C-175.82225203 543.01989883 -175.45869144 548.14588491 -172.16796875 554.2734375 C-170.92455455 556.11152805 -169.69712785 557.56804837 -168 559 C-165.5075961 558.85757692 -163.48119646 558.19722859 -161.1796875 557.25390625 C-154.79541914 554.63760804 -150.10398973 554.05302008 -143.3125 556.125 C-138.93367696 558.60357908 -135.88160508 561.11029447 -134.3671875 566.07421875 C-133.41935041 571.85199164 -134.29824376 576.81703905 -137 582 C-144.57883273 592.52823069 -155.50090768 599.10761594 -168.25390625 601.40625 C-170.50486092 601.68810867 -172.73520371 601.87307621 -175 602 C-175.68449219 602.04125 -176.36898437 602.0825 -177.07421875 602.125 C-195.05568051 602.65679924 -210.68360139 597.27255323 -224.6875 586.1875 C-225.450625 585.465625 -226.21375 584.74375 -227 584 C-227 583.34 -227 582.68 -227 582 C-227.99 581.67 -228.98 581.34 -230 581 C-241.74125835 565.99202058 -244.25509838 550.66848617 -242.7578125 531.9765625 C-241.18283177 519.98742345 -235.79022032 508.97325637 -230.00390625 498.48828125 C-228.86020609 496.15527015 -228.86020609 496.15527015 -229.09375 494.1171875 C-230.47597977 490.88801277 -232.21259966 487.86650309 -233.9375 484.8125 C-237.00994237 479.24572666 -239.10691176 474.36325374 -240 468 C-249.54686743 468.76420564 -258.83250076 469.93599393 -268.125 472.3125 C-268.89303955 472.50094482 -269.6610791 472.68938965 -270.45239258 472.88354492 C-275.96336391 474.36941365 -280.3172494 476.77117066 -285 480 C-286.2684375 480.8353125 -286.2684375 480.8353125 -287.5625 481.6875 C-289.63242738 485.01738318 -289.16520754 487.57789598 -288.62890625 491.3828125 C-287.67840495 495.33831482 -286.0217906 498.47817121 -284 502 C-280.47015836 502.41527549 -279.21574754 502.15200395 -276.25 500.0625 C-272.13555564 497.45141031 -268.83947421 496.79729951 -264 497 C-258.10225544 498.67102762 -255.47475159 501.19666692 -252 506 C-249.86112849 510.27774303 -250.44558708 515.36708414 -251 520 C-254.20298625 529.46969848 -261.1453818 536.65927635 -269.73828125 541.5625 C-272.47333559 542.86232781 -275.14353476 543.99140274 -278 545 C-278.72928711 545.25821533 -279.45857422 545.51643066 -280.20996094 545.7824707 C-286.3140688 547.79744795 -291.83742201 548.51412528 -298.25 548.4375 C-299.16458984 548.42847656 -300.07917969 548.41945313 -301.02148438 548.41015625 C-315.87295338 548.0339051 -328.84906678 542.90306396 -339.875 532.6875 C-352.55250577 518.81459666 -355.73703671 503.29362911 -355 485 C-353.50383821 470.30352466 -346.91450246 455.02988399 -337 444 C-336.34 444 -335.68 444 -335 444 C-334.5978125 443.13375 -334.5978125 443.13375 -334.1875 442.25 C-332.98280141 439.9674132 -331.59201885 438.0262058 -330 436 C-330.67289062 435.8865625 -331.34578125 435.773125 -332.0390625 435.65625 C-347.4242234 432.24634627 -361.97786821 424.04760287 -374 414 C-374.77472656 413.35804688 -375.54945313 412.71609375 -376.34765625 412.0546875 C-392.35561237 398.24875316 -401.95051767 381.45956051 -407 361 C-407.17370117 360.37577148 -407.34740234 359.75154297 -407.52636719 359.10839844 C-413.09818205 337.42698695 -409.59324888 312.24802514 -398.265625 293.0625 C-395.42650495 288.50049514 -392.54847611 284.04918132 -389 280 C-388.34 280 -387.68 280 -387 280 C-386.67 279.01 -386.34 278.02 -386 277 C-372.80137045 265.16333034 -356.20217903 260.64962649 -338.828125 260.84375 C-323.07397322 261.71414513 -309.78124057 267.35694098 -298.90234375 278.84765625 C-294.04224181 284.34645741 -291.47519268 290.17762018 -289 297 C-288.6390625 297.92167969 -288.278125 298.84335937 -287.90625 299.79296875 C-286.79905082 303.71111757 -286.61598966 307.26009844 -286.625 311.3125 C-286.62661133 312.06362061 -286.62822266 312.81474121 -286.62988281 313.58862305 C-286.78877051 320.78296442 -288.48945357 325.86181696 -293 331.5 C-297.32715729 334.74536797 -302.80396087 334.4763771 -308 334 C-313.77690251 332.20716819 -317.67019985 329.06659041 -322 325 C-323.65 325.66 -325.3 326.32 -327 327 C-327.2165625 328.670625 -327.2165625 328.670625 -327.4375 330.375 C-328 334 -328 334 -329 336 C-329.88878741 343.99908669 -327.71930714 349.49943594 -323 356 C-319.33303145 359.52230255 -316.00652899 360.87899387 -311.125 362.1875 C-309.36542969 362.67283203 -309.36542969 362.67283203 -307.5703125 363.16796875 C-290.69033626 367.10170501 -272.48260335 366.17214611 -257 358 C-256.18917969 357.57976562 -255.37835938 357.15953125 -254.54296875 356.7265625 C-244.11032307 350.92530638 -236.68353835 343.03976897 -232 332 C-228.47426592 317.3779372 -235.88886082 303.47066311 -243 291 C-243.63421875 290.06800781 -244.2684375 289.13601563 -244.921875 288.17578125 C-260.66609409 264.11553667 -270.26976922 232.73299356 -271 204 C-271.02046387 203.22640137 -271.04092773 202.45280273 -271.06201172 201.65576172 C-271.29789577 191.28661089 -271.09296843 181.01743677 -270.125 170.6875 C-270.04660889 169.84703125 -269.96821777 169.0065625 -269.88745117 168.140625 C-269.31473764 162.64960358 -268.30913433 157.36047535 -267 152 C-266.71640625 150.81277344 -266.4328125 149.62554687 -266.140625 148.40234375 C-263.72111312 138.98959359 -260.54679144 130.04236938 -257 121 C-256.69578125 120.154375 -256.3915625 119.30875 -256.078125 118.4375 C-250.4319 103.09681321 -241.57548582 89.14438569 -232 76 C-231.44183594 75.19433594 -230.88367188 74.38867188 -230.30859375 73.55859375 C-229.87675781 73.04425781 -229.44492187 72.52992188 -229 72 C-228.34 72 -227.68 72 -227 72 C-226.75507813 71.43925781 -226.51015625 70.87851562 -226.2578125 70.30078125 C-222.47286587 63.37738509 -215.93686017 57.66760386 -209.921875 52.66796875 C-207.87403911 50.93536279 -207.87403911 50.93536279 -205.64453125 48.6015625 C-199.26378252 42.32448916 -184.21495505 28 -175 28 C-175 27.34 -175 26.68 -175 26 C-145.45510129 10.8652835 -145.45510129 10.8652835 -131 7 C-129.60100363 6.53014839 -128.20519468 6.050714 -126.8125 5.5625 C-86.83041648 -7.83500518 -41.08078455 -8.83714551 0 0 Z " fill="#FC7D27" transform="translate(568,205)"/>
<path d="M0 0 C1.87469099 0.35579868 3.74965236 0.71017877 5.625 1.0625 C9.2082435 1.7416346 12.54552539 2.8328902 16 4 C17.65708984 4.48146484 17.65708984 4.48146484 19.34765625 4.97265625 C41.39803967 11.44169618 61.68743942 21.64949829 81 34 C81.57008789 34.3619043 82.14017578 34.72380859 82.72753906 35.09667969 C90.24890213 39.8883465 90.24890213 39.8883465 93 42 C93 42.66 93 43.32 93 44 C93.74636719 44.26192139 94.49273438 44.52384277 95.26171875 44.79370117 C98.03006187 46.0132432 99.64296757 47.22402488 101.8125 49.30078125 C102.49570312 49.94853516 103.17890625 50.59628906 103.8828125 51.26367188 C104.58148437 51.93978516 105.28015625 52.61589844 106 53.3125 C106.69867187 53.97701172 107.39734375 54.64152344 108.1171875 55.32617188 C110.08883951 57.20668148 112.04520861 59.10199759 114 61 C114.53238281 61.50321777 115.06476562 62.00643555 115.61328125 62.52490234 C116.78039805 63.64475913 117.89682472 64.81710307 119 66 C119 66.66 119 67.32 119 68 C119.5775 68.226875 120.155 68.45375 120.75 68.6875 C123.59739809 70.34848222 125.12067193 72.31524561 127 75 C127 75.66 127 76.32 127 77 C127.66 77 128.32 77 129 77 C130.69921875 79.23828125 130.69921875 79.23828125 132.6875 82.3125 C133.40421875 83.41851562 134.1209375 84.52453125 134.859375 85.6640625 C135.91898438 87.31535156 135.91898438 87.31535156 137 89 C137.87398437 90.31097656 137.87398437 90.31097656 138.765625 91.6484375 C165.16000645 131.7333626 174.46339297 181.00025525 165.41552734 228.03857422 C159.81458157 254.36521581 149.52703488 279.84882484 133.53515625 301.625 C127.80695661 310.48694753 124.76112841 320.49047138 126 331 C130.56263071 344.23352226 141.2284853 352.02940036 153.1875 358.375 C171.29756097 366.7071499 191.48534379 365.18118591 210.06640625 359.203125 C214.66053667 357.31898097 218.78067092 354.80620712 220.81640625 350.12109375 C221.0706119 347.18420716 220.09191784 345.63001318 218.6875 343.0625 C216.90613509 339.76008426 215.33693191 336.50866167 214 333 C212.865625 333.144375 211.73125 333.28875 210.5625 333.4375 C209.83289063 333.52515625 209.10328125 333.6128125 208.3515625 333.703125 C206.80159973 333.89880136 205.25429856 334.11707258 203.7109375 334.359375 C198.63207786 335.09240629 194.84816627 335.05114727 190 333 C185.48832148 329.51370296 183.10527103 325.5518614 182 320 C180.49837871 304.08647681 184.70567843 291.46714133 194.55078125 279.04296875 C204.68707074 267.90059593 218.54427701 262.70614797 233.234375 261.625 C250.79768495 260.85647945 265.58932675 266.23092094 279.63671875 276.703125 C280.08660156 277.13109375 280.53648437 277.5590625 281 278 C281 278.66 281 279.32 281 280 C281.66 280 282.32 280 283 280 C283 280.66 283 281.32 283 282 C283.66 282 284.32 282 285 282 C286.55167994 283.86262563 287.94034774 285.69740064 289.3125 287.6875 C289.71549316 288.27184814 290.11848633 288.85619629 290.53369141 289.45825195 C294.40286125 295.2760311 296.85643509 301.35832446 299 308 C299.30679688 308.92167969 299.61359375 309.84335937 299.9296875 310.79296875 C305.48262743 328.27150823 304.88730078 349.44701833 300 367 C299.81824219 367.83144531 299.63648438 368.66289063 299.44921875 369.51953125 C295.20371427 386.93476392 282.2525727 406.29965874 267.625 416.5 C265 418 265 418 263 418 C263 418.66 263 419.32 263 420 C253.71018502 427.13969879 242.91739073 431.07905159 232 435 C234.03436759 437.5880246 236.01353528 440.01317909 238.375 442.3125 C252.26433976 456.53253833 259.09369852 475.33736604 259 495 C258.55478968 510.47105872 251.99161475 525.02808349 241 536 C228.74538956 546.85243714 215.70014732 550.17906259 199.8125 550.1875 C198.61818359 550.19974609 197.42386719 550.21199219 196.19335938 550.22460938 C181.51826167 550.24883904 168.88120507 546.74842015 157.98046875 536.32421875 C152.26962765 529.62214685 148.99413529 522.28083652 149.54296875 513.41015625 C150.46120299 508.56784407 152.98731209 505.93673632 156.5 502.6875 C160.92020933 499.7038587 164.69632407 499.6464216 170 500 C173.84166921 501.04120007 177.10858264 502.26139705 180.1875 504.8125 C181.98438102 506.27038258 181.98438102 506.27038258 184.4375 505.6875 C188.25925571 503.17073405 190.28611244 500.22852588 192 496 C192.86920327 491.12946443 192.50776664 487.28150628 190.6875 482.6875 C181.12745575 473.12745575 165.57772682 472.55704103 152.9375 470.875 C151.58133289 470.69175609 150.22521266 470.50816491 148.86914062 470.32421875 C145.5798703 469.87940639 142.29017067 469.43809424 139 469 C138.9575415 469.71212646 138.91508301 470.42425293 138.87133789 471.15795898 C137.88864961 484.65543813 132.3858065 496.40388828 122.2578125 505.578125 C120.65528512 507.06605027 120.65528512 507.06605027 121.0625 510.0625 C121.63515962 513.08312217 122.6723445 515.73927782 123.875 518.5625 C130.49403343 534.6510995 131.69234169 553.01598803 125.5390625 569.41015625 C119.50984751 583.47322371 110.13852276 591.90245609 96.58984375 598.58984375 C88.41983012 601.79917446 80.72985657 602.33984917 72 602.3125 C70.45699219 602.33666992 70.45699219 602.33666992 68.8828125 602.36132812 C56.44337613 602.36924125 46.47668552 597.99214036 37 590 C31.11854029 583.62841865 27.62606064 576.90554383 27.7890625 568.15234375 C28.31491621 562.78668829 30.04240656 559.07159266 33.625 555.0625 C38.56954522 552.04083348 42.78160069 551.3288646 48.47265625 552.515625 C52.54242765 553.75971772 55.04137725 554.9240381 58 558 C60.10332891 558.71447643 60.10332891 558.71447643 62 559 C63.59077888 554.22766335 64.08883158 549.42727673 62.01171875 544.796875 C57.98565936 538.30981592 51.9046281 531.45231405 45 528 C45 527.34 45 526.68 45 526 C44.28972656 525.72671875 43.57945312 525.4534375 42.84765625 525.171875 C39.9664066 523.98617556 37.21709024 522.65681302 34.4375 521.25 C31.21909629 519.62294017 28.00050163 518.00024567 24.76171875 516.4140625 C14.07873494 511.1723494 14.07873494 511.1723494 10 508 C10 507.34 10 506.68 10 506 C9.4225 505.75894531 8.845 505.51789063 8.25 505.26953125 C5.57055854 503.75769362 4.00387242 502.01621893 2 499.6875 C1.34 498.92824219 0.68 498.16898438 0 497.38671875 C-0.66 496.59910156 -1.32 495.81148437 -2 495 C-3.01320313 493.80890625 -3.01320313 493.80890625 -4.046875 492.59375 C-6.16236697 489.78437667 -7.69864813 486.96613195 -9.25 483.8125 C-9.77078125 482.76707031 -10.2915625 481.72164062 -10.828125 480.64453125 C-12 478 -12 478 -12 476 C-12.66 476 -13.32 476 -14 476 C-14.26941406 476.70125 -14.53882813 477.4025 -14.81640625 478.125 C-16.06530043 481.15861754 -17.46745851 484.06739814 -18.9375 487 C-19.44152344 488.010625 -19.94554687 489.02125 -20.46484375 490.0625 C-22.66706495 494.27641944 -25.16271526 498.28649189 -27.6875 502.3125 C-28.12449219 503.00988281 -28.56148437 503.70726562 -29.01171875 504.42578125 C-29.33785156 504.94527344 -29.66398437 505.46476562 -30 506 C-27.51111978 508.48888022 -25.47517776 508.87299508 -22.125 509.9375 C-12.54728719 513.52648773 -3.84277792 520.7556791 1.04296875 529.88671875 C1.35878906 530.58410156 1.67460938 531.28148437 2 532 C2.58201172 533.21623047 2.58201172 533.21623047 3.17578125 534.45703125 C7.77398516 545.75502368 8.00497818 559.76892797 3.875 571.25 C1.54832521 576.37657157 -1.2556645 580.80272069 -5 585 C-5.7425 585.845625 -6.485 586.69125 -7.25 587.5625 C-20.04143872 598.90036614 -36.683787 604.95995404 -53.9375 604.34375 C-71.0213205 602.42617831 -87.24753673 597.29598955 -99 584 C-99 583.34 -99 582.68 -99 582 C-99.66 582 -100.32 582 -101 582 C-117.44560066 559.04600525 -118.40124367 532.09834936 -115.18359375 505.02368164 C-115.00209312 503.0230716 -115 501.00882628 -115 499 C-116.12535156 499.99580078 -116.12535156 499.99580078 -117.2734375 501.01171875 C-123.51225058 506.43780107 -129.36262094 510.7061997 -137 514 C-139.46632235 515.07904965 -141.92984225 516.16398466 -144.390625 517.25561523 C-146.12464482 518.02264648 -147.86274657 518.78053964 -149.60546875 519.52758789 C-155.52577864 522.12526305 -160.71114647 525.29883349 -166 529 C-166.67160156 529.43183594 -167.34320313 529.86367188 -168.03515625 530.30859375 C-170.66600501 532.04268503 -172.72945941 533.57654517 -174.4375 536.25 C-175.82225203 543.01989883 -175.45869144 548.14588491 -172.16796875 554.2734375 C-170.92455455 556.11152805 -169.69712785 557.56804837 -168 559 C-165.5075961 558.85757692 -163.48119646 558.19722859 -161.1796875 557.25390625 C-154.79541914 554.63760804 -150.10398973 554.05302008 -143.3125 556.125 C-138.93367696 558.60357908 -135.88160508 561.11029447 -134.3671875 566.07421875 C-133.41935041 571.85199164 -134.29824376 576.81703905 -137 582 C-144.57883273 592.52823069 -155.50090768 599.10761594 -168.25390625 601.40625 C-170.50486092 601.68810867 -172.73520371 601.87307621 -175 602 C-175.68449219 602.04125 -176.36898437 602.0825 -177.07421875 602.125 C-195.05568051 602.65679924 -210.68360139 597.27255323 -224.6875 586.1875 C-225.450625 585.465625 -226.21375 584.74375 -227 584 C-227 583.34 -227 582.68 -227 582 C-227.99 581.67 -228.98 581.34 -230 581 C-241.74125835 565.99202058 -244.25509838 550.66848617 -242.7578125 531.9765625 C-241.18283177 519.98742345 -235.79022032 508.97325637 -230.00390625 498.48828125 C-228.86020609 496.15527015 -228.86020609 496.15527015 -229.09375 494.1171875 C-230.47597977 490.88801277 -232.21259966 487.86650309 -233.9375 484.8125 C-237.00994237 479.24572666 -239.10691176 474.36325374 -240 468 C-249.54686743 468.76420564 -258.83250076 469.93599393 -268.125 472.3125 C-268.89303955 472.50094482 -269.6610791 472.68938965 -270.45239258 472.88354492 C-275.96336391 474.36941365 -280.3172494 476.77117066 -285 480 C-286.2684375 480.8353125 -286.2684375 480.8353125 -287.5625 481.6875 C-289.63242738 485.01738318 -289.16520754 487.57789598 -288.62890625 491.3828125 C-287.67840495 495.33831482 -286.0217906 498.47817121 -284 502 C-280.47015836 502.41527549 -279.21574754 502.15200395 -276.25 500.0625 C-272.13555564 497.45141031 -268.83947421 496.79729951 -264 497 C-258.10225544 498.67102762 -255.47475159 501.19666692 -252 506 C-249.86112849 510.27774303 -250.44558708 515.36708414 -251 520 C-254.20298625 529.46969848 -261.1453818 536.65927635 -269.73828125 541.5625 C-272.47333559 542.86232781 -275.14353476 543.99140274 -278 545 C-278.72928711 545.25821533 -279.45857422 545.51643066 -280.20996094 545.7824707 C-286.3140688 547.79744795 -291.83742201 548.51412528 -298.25 548.4375 C-299.16458984 548.42847656 -300.07917969 548.41945313 -301.02148438 548.41015625 C-315.87295338 548.0339051 -328.84906678 542.90306396 -339.875 532.6875 C-352.55250577 518.81459666 -355.73703671 503.29362911 -355 485 C-353.50383821 470.30352466 -346.91450246 455.02988399 -337 444 C-336.34 444 -335.68 444 -335 444 C-334.5978125 443.13375 -334.5978125 443.13375 -334.1875 442.25 C-332.98280141 439.9674132 -331.59201885 438.0262058 -330 436 C-330.67289062 435.8865625 -331.34578125 435.773125 -332.0390625 435.65625 C-347.4242234 432.24634627 -361.97786821 424.04760287 -374 414 C-374.77472656 413.35804688 -375.54945313 412.71609375 -376.34765625 412.0546875 C-392.35561237 398.24875316 -401.95051767 381.45956051 -407 361 C-407.17370117 360.37577148 -407.34740234 359.75154297 -407.52636719 359.10839844 C-413.09818205 337.42698695 -409.59324888 312.24802514 -398.265625 293.0625 C-395.42650495 288.50049514 -392.54847611 284.04918132 -389 280 C-388.34 280 -387.68 280 -387 280 C-386.67 279.01 -386.34 278.02 -386 277 C-372.80137045 265.16333034 -356.20217903 260.64962649 -338.828125 260.84375 C-323.07397322 261.71414513 -309.78124057 267.35694098 -298.90234375 278.84765625 C-294.04224181 284.34645741 -291.47519268 290.17762018 -289 297 C-288.6390625 297.92167969 -288.278125 298.84335937 -287.90625 299.79296875 C-286.79905082 303.71111757 -286.61598966 307.26009844 -286.625 311.3125 C-286.62661133 312.06362061 -286.62822266 312.81474121 -286.62988281 313.58862305 C-286.78877051 320.78296442 -288.48945357 325.86181696 -293 331.5 C-297.32715729 334.74536797 -302.80396087 334.4763771 -308 334 C-313.77690251 332.20716819 -317.67019985 329.06659041 -322 325 C-323.65 325.66 -325.3 326.32 -327 327 C-327.2165625 328.670625 -327.2165625 328.670625 -327.4375 330.375 C-328 334 -328 334 -329 336 C-329.88878741 343.99908669 -327.71930714 349.49943594 -323 356 C-319.33303145 359.52230255 -316.00652899 360.87899387 -311.125 362.1875 C-309.36542969 362.67283203 -309.36542969 362.67283203 -307.5703125 363.16796875 C-290.69033626 367.10170501 -272.48260335 366.17214611 -257 358 C-256.18917969 357.57976562 -255.37835938 357.15953125 -254.54296875 356.7265625 C-244.11032307 350.92530638 -236.68353835 343.03976897 -232 332 C-228.47426592 317.3779372 -235.88886082 303.47066311 -243 291 C-243.63421875 290.06800781 -244.2684375 289.13601563 -244.921875 288.17578125 C-260.66609409 264.11553667 -270.26976922 232.73299356 -271 204 C-271.02046387 203.22640137 -271.04092773 202.45280273 -271.06201172 201.65576172 C-271.29789577 191.28661089 -271.09296843 181.01743677 -270.125 170.6875 C-270.04660889 169.84703125 -269.96821777 169.0065625 -269.88745117 168.140625 C-269.31473764 162.64960358 -268.30913433 157.36047535 -267 152 C-266.71640625 150.81277344 -266.4328125 149.62554687 -266.140625 148.40234375 C-263.72111312 138.98959359 -260.54679144 130.04236938 -257 121 C-256.69578125 120.154375 -256.3915625 119.30875 -256.078125 118.4375 C-250.4319 103.09681321 -241.57548582 89.14438569 -232 76 C-231.44183594 75.19433594 -230.88367188 74.38867188 -230.30859375 73.55859375 C-229.87675781 73.04425781 -229.44492187 72.52992188 -229 72 C-228.34 72 -227.68 72 -227 72 C-226.75507813 71.43925781 -226.51015625 70.87851562 -226.2578125 70.30078125 C-222.47286587 63.37738509 -215.93686017 57.66760386 -209.921875 52.66796875 C-207.87403911 50.93536279 -207.87403911 50.93536279 -205.64453125 48.6015625 C-199.26378252 42.32448916 -184.21495505 28 -175 28 C-175 27.34 -175 26.68 -175 26 C-145.45510129 10.8652835 -145.45510129 10.8652835 -131 7 C-129.60100363 6.53014839 -128.20519468 6.050714 -126.8125 5.5625 C-86.83041648 -7.83500518 -41.08078455 -8.83714551 0 0 Z M-65.80664062 -2.96191406 C-117.40410714 -1.9947083 -170.50584197 18.40909872 -208 54 C-209.34879668 55.15214969 -210.7026303 56.29844083 -212.0625 57.4375 C-236.01566645 78.4208633 -250.16784244 107.30682172 -260 137 C-260.26723877 137.79067871 -260.53447754 138.58135742 -260.80981445 139.39599609 C-266.61764754 156.6063803 -268.41562536 173.45150788 -268.375 191.5 C-268.37512085 192.32983398 -268.3752417 193.15966797 -268.37536621 194.01464844 C-268.34712514 207.6806973 -267.27872075 220.68897924 -264 234 C-263.71125 235.25167969 -263.4225 236.50335938 -263.125 237.79296875 C-258.32673266 256.40767552 -249.68981967 274.08859853 -240.18066406 290.70825195 C-226.38873371 314.91633912 -226.38873371 314.91633912 -228 329 C-227.67 329 -227.34 329 -227 329 C-225.99263855 347.80408049 -232.58601394 364.96448685 -245 379 C-245.65355469 379.78375 -246.30710937 380.5675 -246.98046875 381.375 C-260.22594664 396.81599426 -277.13813699 407.29513563 -294.55859375 417.40234375 C-299.37162926 420.20157495 -304.12645833 423.09303252 -308.875 426 C-309.64239502 426.46913818 -310.40979004 426.93827637 -311.20043945 427.42163086 C-314.16678915 429.24021212 -317.10427924 431.06951949 -320 433 C-322.32387947 433.39387788 -324.65793749 433.73486085 -327 434 C-326.34 434.66 -325.68 435.32 -325 436 C-325.54527344 436.49886719 -326.09054687 436.99773437 -326.65234375 437.51171875 C-341.86216179 451.9935455 -351.60128795 469.76843761 -352.33007812 490.87792969 C-352.61574996 506.75755747 -348.18526015 519.58155584 -337.1875 531.3125 C-324.48557198 543.21143257 -310.0255647 545.91624593 -293.19921875 545.3828125 C-282.74344628 544.78705266 -274.58064832 540.77330127 -266 535 C-264.63875 534.13375 -264.63875 534.13375 -263.25 533.25 C-258.27762047 528.27762047 -253.89204491 521.35524433 -253.6875 514.25 C-253.73652657 509.40337364 -254.68271204 506.68587551 -258 503 C-262.43129373 500.26579748 -266.94177271 500.32770397 -272 501 C-275.3669115 502.74348693 -275.3669115 502.74348693 -278 505 C-279.3191582 505.69429379 -280.64649406 506.37530495 -282 507 C-288.25695621 503.50774537 -291.73058234 498.80825298 -294 492 C-294.72861419 487.70342974 -295.116502 483.75739439 -292.70703125 479.96484375 C-283.00104022 470.5485838 -267.55045226 468.8649806 -254.75 466.75 C-252.51017571 466.36922505 -250.27100844 465.98492547 -248.0322876 465.59771729 C-246.03401798 465.25368226 -244.03413773 464.91904084 -242.03417969 464.58496094 C-239.09469847 464.1597693 -239.09469847 464.1597693 -237 463 C-237.103125 464.0725 -237.20625 465.145 -237.3125 466.25 C-237.27944355 475.60497439 -231.89454779 483.76835005 -226.2578125 490.84375 C-225 493 -225 493 -225.07421875 494.8671875 C-226.11140169 497.25664692 -227.33254783 499.50923329 -228.62890625 501.76733398 C-238.76302966 519.55113127 -243.04443758 537.35707454 -239.296875 557.84375 C-238.41423631 560.7459857 -237.38081364 563.30269634 -236 566 C-235.56429687 566.86238281 -235.12859375 567.72476563 -234.6796875 568.61328125 C-226.32067002 583.66408049 -213.43092329 593.19821619 -196.99609375 597.9296875 C-181.62899941 601.66604891 -165.5495487 599.81849621 -151.6875 592.3125 C-145.15226796 588.11204091 -139.44308375 582.49528608 -137 575 C-136.55027099 570.27784534 -136.53685824 567.98186054 -138.5625 563.6875 C-142.35406341 559.50705829 -146.02819006 558.2421521 -151.5625 557.5625 C-155.68454581 558.08712401 -157.74050555 559.48129975 -161 562 C-164 564 -164 564 -166.875 563.9375 C-172.0353574 562.38939278 -174.22950941 559.06202758 -177.3125 554.8125 C-180.4179902 548.99286187 -179.58599516 542.76519132 -178.046875 536.57421875 C-176.0238086 530.78545054 -171.95736806 528.60331767 -166.8125 525.6875 C-165.98685547 525.18927734 -165.16121094 524.69105469 -164.31054688 524.17773438 C-157.84791031 520.32256032 -151.26136661 516.72659718 -144.1875 514.125 C-129.32015757 508.23716867 -118.72891822 499.57481294 -109 487 C-109.22719727 488.02262939 -109.22719727 488.02262939 -109.45898438 489.06591797 C-115.92495693 518.87405147 -117.9643827 548.70817897 -101.6875 575.75 C-93.49047951 587.95795572 -81.81551204 596.27257285 -67.375 599.546875 C-66.59125 599.69640625 -65.8075 599.8459375 -65 600 C-63.865625 600.226875 -62.73125 600.45375 -61.5625 600.6875 C-56.36053586 601.14381264 -51.2174093 601.13464282 -46 601 C-45.19691406 600.99484375 -44.39382813 600.9896875 -43.56640625 600.984375 C-29.94437436 600.34117619 -16.38258627 593.52320696 -6.94921875 583.91015625 C1.92173337 573.40558126 4.6343644 561.40975865 4 548 C2.27339098 536.10558227 -4.30267556 524.80992079 -13.83203125 517.6171875 C-20.30465977 513.2142182 -28.0713335 509.61428109 -36 510 C-35.62230469 509.42636719 -35.24460937 508.85273437 -34.85546875 508.26171875 C-26.46568162 495.31354611 -18.60082012 481.95363241 -12 468 C-11.70867187 468.82242187 -11.41734375 469.64484375 -11.1171875 470.4921875 C-3.37450778 491.57759832 9.31130818 506.78477848 29.8125 516.3125 C32.57431685 517.53337483 35.33881187 518.73165674 38.13671875 519.8671875 C48.67300176 524.50580266 62.56214128 536.23447668 67 547 C67.6492059 553.49205899 66.31245345 557.43981028 63 563 C60.3125 563.3125 60.3125 563.3125 57 563 C54.375 560.625 54.375 560.625 52 558 C47.54583286 555.28794897 43.05935191 554.89205617 38 556 C34.66667868 558.11798646 32.74138264 560.46716302 31 564 C29.71637517 570.11713624 30.52233099 575.71139321 33.68359375 581.09765625 C40.5658256 591.04319605 49.24079562 597.0229101 61 600 C64.03620811 600.40757794 67.00177036 600.478575 70.0625 600.4375 C71.29250732 600.42396484 71.29250732 600.42396484 72.54736328 600.41015625 C88.03173201 599.97928686 101.38131763 595.298068 112.9375 584.625 C116.6908436 580.50932868 119.49490807 575.95964886 122 571 C122.41636719 570.18660156 122.83273437 569.37320313 123.26171875 568.53515625 C130.15014207 552.07544999 126.51337644 531.9778265 120.3125 516 C119.87550781 514.948125 119.43851563 513.89625 118.98828125 512.8125 C118 510 118 510 118 506 C119.5390625 504.2109375 119.5390625 504.2109375 121.625 502.375 C129.93105499 494.48057251 134.67788422 484.25265564 136.6875 473.0625 C136.81705078 472.37865234 136.94660156 471.69480469 137.08007812 470.99023438 C137.39389598 469.32816202 137.69799166 467.66425873 138 466 C138.70640625 466.12117188 139.4128125 466.24234375 140.140625 466.3671875 C145.35720567 467.21914163 150.51964396 467.98998185 155.7890625 468.40234375 C168.63089335 469.41764595 182.35449303 471.01586977 193 479 C196.85439188 484.0977441 196.76433491 489.86833546 196 496 C194.70456668 500.58276947 192.9224127 504.00279709 189.6875 507.5 C186.18978085 509.45221534 184.03312546 510.13907329 180 510 C177.92111449 508.65607401 176.24348223 507.18008549 174.48046875 505.4453125 C172.01268496 503.03613044 170.09987015 502.7957441 166.75 502.6875 C162.10249011 502.74727505 159.5482927 503.8741231 156 507 C152.91238778 510.60221426 152.4207287 513.92260568 152.58203125 518.53125 C153.88903556 526.2511259 158.86038063 534.00985751 165.15234375 538.5546875 C179.8646009 547.89801669 197.26322906 550.69294752 214.3125 546.9375 C230.24871625 542.16109905 241.95463889 533.68697433 250 519 C256.98318218 505.27368253 258.66398578 488.89447869 254.16796875 473.9921875 C248.15414204 458.58552776 239.54569353 445.95999249 227 435 C226.34 435 225.68 435 225 435 C225 434.34 225 433.68 225 433 C226.175625 432.79375 227.35125 432.5875 228.5625 432.375 C250.58900852 427.42249887 271.673151 413.69010476 284.21484375 394.86328125 C299.26551746 370.72292275 305.33438144 343.15781474 299.1015625 314.99609375 C296.12956048 303.42347021 290.66717495 293.14518458 283 284 C282.48179687 283.35804688 281.96359375 282.71609375 281.4296875 282.0546875 C272.55252071 272.10690763 257.83744193 265.65903363 244.65136719 264.85717773 C226.43698013 264.19554402 212.21036132 266.43973131 198.25 279.1875 C188.52740526 289.5426491 184.56516164 302.25750115 184.71875 316.21484375 C185.29732434 321.94433689 187.48500877 326.32122593 191.3125 330.5625 C194.90825587 332.48581128 196.95647787 332.54827419 201 332 C208.05795468 329.52839415 211.74295613 325.68402046 215 319 C220.01319327 318.64333012 223.85303903 318.43694643 228.4375 320.6875 C231.74996775 323.67680016 233.68361399 326.2880819 234.50390625 330.7265625 C234.66950516 338.91818843 232.70955023 344.32637726 228 351 C227.52820313 351.6703125 227.05640625 352.340625 226.5703125 353.03125 C219.20895613 361.72756737 205.83288863 364.6216839 195 366 C191.16058628 366.25103859 187.34647917 366.28114558 183.5 366.25 C182.54480469 366.25773437 181.58960938 366.26546875 180.60546875 366.2734375 C162.95206991 366.22566105 146.67792813 360.4137853 133.6875 348.1875 C126.83801498 340.98567522 122.51431873 333.4612823 122.6796875 323.52734375 C123.72155233 312.05412496 128.57100117 303.72701215 135.0559082 294.54760742 C139.73887993 287.76082614 143.3871509 280.62078837 146.9375 273.1875 C147.46859375 272.07922852 147.9996875 270.97095703 148.546875 269.82910156 C154.40055444 257.3622463 158.74324591 245.13699417 161.75 231.6875 C162.05521579 230.36896127 162.36120321 229.05060091 162.66796875 227.73242188 C165.31318694 216.15812274 166.23832375 205.63625322 166.25 193.75 C166.25100708 193.0395755 166.25201416 192.329151 166.25305176 191.59719849 C166.237402 175.23837017 164.41737992 159.73042199 159.61865234 144.03466797 C159.1823789 142.59982072 158.75945612 141.16088089 158.34619141 139.71923828 C150.70554503 113.21358609 136.97298326 89.01354906 118 69 C116.53999124 67.33480082 115.08168987 65.66810327 113.625 64 C76.68310753 23.2561975 18.14722563 0.45161598 -36 -3 C-40.31369335 -3.13121501 -44.62207015 -3.14365863 -48.9375 -3.125 C-50.12190674 -3.12016602 -51.30631348 -3.11533203 -52.52661133 -3.11035156 C-56.95363593 -3.0804453 -61.37994744 -3.02198401 -65.80664062 -2.96191406 Z " fill="#F67020" transform="translate(568,205)"/>
<path d="M0 0 C1.87469099 0.35579868 3.74965236 0.71017877 5.625 1.0625 C9.2082435 1.7416346 12.54552539 2.8328902 16 4 C17.65708984 4.48146484 17.65708984 4.48146484 19.34765625 4.97265625 C41.39803967 11.44169618 61.68743942 21.64949829 81 34 C81.57008789 34.3619043 82.14017578 34.72380859 82.72753906 35.09667969 C90.24890213 39.8883465 90.24890213 39.8883465 93 42 C93 42.66 93 43.32 93 44 C93.74636719 44.26192139 94.49273438 44.52384277 95.26171875 44.79370117 C98.03006187 46.0132432 99.64296757 47.22402488 101.8125 49.30078125 C102.49570312 49.94853516 103.17890625 50.59628906 103.8828125 51.26367188 C104.58148437 51.93978516 105.28015625 52.61589844 106 53.3125 C106.69867187 53.97701172 107.39734375 54.64152344 108.1171875 55.32617188 C110.08883951 57.20668148 112.04520861 59.10199759 114 61 C114.53238281 61.50321777 115.06476562 62.00643555 115.61328125 62.52490234 C116.78039805 63.64475913 117.89682472 64.81710307 119 66 C119 66.66 119 67.32 119 68 C119.5775 68.226875 120.155 68.45375 120.75 68.6875 C123.59739809 70.34848222 125.12067193 72.31524561 127 75 C127 75.66 127 76.32 127 77 C127.66 77 128.32 77 129 77 C130.69921875 79.23828125 130.69921875 79.23828125 132.6875 82.3125 C133.40421875 83.41851562 134.1209375 84.52453125 134.859375 85.6640625 C135.91898438 87.31535156 135.91898438 87.31535156 137 89 C137.87398437 90.31097656 137.87398437 90.31097656 138.765625 91.6484375 C165.16000645 131.7333626 174.46339297 181.00025525 165.41552734 228.03857422 C159.81458157 254.36521581 149.52703488 279.84882484 133.53515625 301.625 C127.80695661 310.48694753 124.76112841 320.49047138 126 331 C130.56263071 344.23352226 141.2284853 352.02940036 153.1875 358.375 C171.29756097 366.7071499 191.48534379 365.18118591 210.06640625 359.203125 C214.66053667 357.31898097 218.78067092 354.80620712 220.81640625 350.12109375 C221.0706119 347.18420716 220.09191784 345.63001318 218.6875 343.0625 C216.90613509 339.76008426 215.33693191 336.50866167 214 333 C212.865625 333.144375 211.73125 333.28875 210.5625 333.4375 C209.83289063 333.52515625 209.10328125 333.6128125 208.3515625 333.703125 C206.80159973 333.89880136 205.25429856 334.11707258 203.7109375 334.359375 C198.63207786 335.09240629 194.84816627 335.05114727 190 333 C185.48832148 329.51370296 183.10527103 325.5518614 182 320 C180.49837871 304.08647681 184.70567843 291.46714133 194.55078125 279.04296875 C204.68707074 267.90059593 218.54427701 262.70614797 233.234375 261.625 C250.79768495 260.85647945 265.58932675 266.23092094 279.63671875 276.703125 C280.08660156 277.13109375 280.53648437 277.5590625 281 278 C281 278.66 281 279.32 281 280 C281.66 280 282.32 280 283 280 C283 280.66 283 281.32 283 282 C283.66 282 284.32 282 285 282 C286.55167994 283.86262563 287.94034774 285.69740064 289.3125 287.6875 C289.71549316 288.27184814 290.11848633 288.85619629 290.53369141 289.45825195 C294.40286125 295.2760311 296.85643509 301.35832446 299 308 C299.30679688 308.92167969 299.61359375 309.84335937 299.9296875 310.79296875 C305.48262743 328.27150823 304.88730078 349.44701833 300 367 C299.81824219 367.83144531 299.63648438 368.66289063 299.44921875 369.51953125 C295.20371427 386.93476392 282.2525727 406.29965874 267.625 416.5 C265 418 265 418 263 418 C263 418.66 263 419.32 263 420 C253.71018502 427.13969879 242.91739073 431.07905159 232 435 C234.03436759 437.5880246 236.01353528 440.01317909 238.375 442.3125 C252.26433976 456.53253833 259.09369852 475.33736604 259 495 C258.55478968 510.47105872 251.99161475 525.02808349 241 536 C228.74538956 546.85243714 215.70014732 550.17906259 199.8125 550.1875 C198.61818359 550.19974609 197.42386719 550.21199219 196.19335938 550.22460938 C181.51826167 550.24883904 168.88120507 546.74842015 157.98046875 536.32421875 C152.26962765 529.62214685 148.99413529 522.28083652 149.54296875 513.41015625 C150.46120299 508.56784407 152.98731209 505.93673632 156.5 502.6875 C160.92020933 499.7038587 164.69632407 499.6464216 170 500 C173.84166921 501.04120007 177.10858264 502.26139705 180.1875 504.8125 C181.98438102 506.27038258 181.98438102 506.27038258 184.4375 505.6875 C188.25925571 503.17073405 190.28611244 500.22852588 192 496 C192.86920327 491.12946443 192.50776664 487.28150628 190.6875 482.6875 C181.12745575 473.12745575 165.57772682 472.55704103 152.9375 470.875 C151.58133289 470.69175609 150.22521266 470.50816491 148.86914062 470.32421875 C145.5798703 469.87940639 142.29017067 469.43809424 139 469 C138.9575415 469.71212646 138.91508301 470.42425293 138.87133789 471.15795898 C137.88864961 484.65543813 132.3858065 496.40388828 122.2578125 505.578125 C120.65528512 507.06605027 120.65528512 507.06605027 121.0625 510.0625 C121.63515962 513.08312217 122.6723445 515.73927782 123.875 518.5625 C130.49403343 534.6510995 131.69234169 553.01598803 125.5390625 569.41015625 C119.50984751 583.47322371 110.13852276 591.90245609 96.58984375 598.58984375 C88.41983012 601.79917446 80.72985657 602.33984917 72 602.3125 C70.45699219 602.33666992 70.45699219 602.33666992 68.8828125 602.36132812 C56.44337613 602.36924125 46.47668552 597.99214036 37 590 C31.11854029 583.62841865 27.62606064 576.90554383 27.7890625 568.15234375 C28.31491621 562.78668829 30.04240656 559.07159266 33.625 555.0625 C38.56954522 552.04083348 42.78160069 551.3288646 48.47265625 552.515625 C52.54242765 553.75971772 55.04137725 554.9240381 58 558 C60.10332891 558.71447643 60.10332891 558.71447643 62 559 C63.59077888 554.22766335 64.08883158 549.42727673 62.01171875 544.796875 C57.98565936 538.30981592 51.9046281 531.45231405 45 528 C45 527.34 45 526.68 45 526 C44.28972656 525.72671875 43.57945312 525.4534375 42.84765625 525.171875 C39.9664066 523.98617556 37.21709024 522.65681302 34.4375 521.25 C31.21909629 519.62294017 28.00050163 518.00024567 24.76171875 516.4140625 C14.07873494 511.1723494 14.07873494 511.1723494 10 508 C10 507.34 10 506.68 10 506 C9.4225 505.75894531 8.845 505.51789063 8.25 505.26953125 C5.57055854 503.75769362 4.00387242 502.01621893 2 499.6875 C1.34 498.92824219 0.68 498.16898438 0 497.38671875 C-0.66 496.59910156 -1.32 495.81148437 -2 495 C-3.01320313 493.80890625 -3.01320313 493.80890625 -4.046875 492.59375 C-6.16236697 489.78437667 -7.69864813 486.96613195 -9.25 483.8125 C-9.77078125 482.76707031 -10.2915625 481.72164062 -10.828125 480.64453125 C-12 478 -12 478 -12 476 C-12.66 476 -13.32 476 -14 476 C-14.26941406 476.70125 -14.53882813 477.4025 -14.81640625 478.125 C-16.06530043 481.15861754 -17.46745851 484.06739814 -18.9375 487 C-19.44152344 488.010625 -19.94554687 489.02125 -20.46484375 490.0625 C-22.66706495 494.27641944 -25.16271526 498.28649189 -27.6875 502.3125 C-28.12449219 503.00988281 -28.56148437 503.70726562 -29.01171875 504.42578125 C-29.33785156 504.94527344 -29.66398437 505.46476562 -30 506 C-27.51111978 508.48888022 -25.47517776 508.87299508 -22.125 509.9375 C-12.54728719 513.52648773 -3.84277792 520.7556791 1.04296875 529.88671875 C1.35878906 530.58410156 1.67460938 531.28148437 2 532 C2.58201172 533.21623047 2.58201172 533.21623047 3.17578125 534.45703125 C7.77398516 545.75502368 8.00497818 559.76892797 3.875 571.25 C1.54832521 576.37657157 -1.2556645 580.80272069 -5 585 C-5.7425 585.845625 -6.485 586.69125 -7.25 587.5625 C-20.04143872 598.90036614 -36.683787 604.95995404 -53.9375 604.34375 C-71.0213205 602.42617831 -87.24753673 597.29598955 -99 584 C-99 583.34 -99 582.68 -99 582 C-99.66 582 -100.32 582 -101 582 C-117.44560066 559.04600525 -118.40124367 532.09834936 -115.18359375 505.02368164 C-115.00209312 503.0230716 -115 501.00882628 -115 499 C-116.12535156 499.99580078 -116.12535156 499.99580078 -117.2734375 501.01171875 C-123.51225058 506.43780107 -129.36262094 510.7061997 -137 514 C-139.46632235 515.07904965 -141.92984225 516.16398466 -144.390625 517.25561523 C-146.12464482 518.02264648 -147.86274657 518.78053964 -149.60546875 519.52758789 C-155.52577864 522.12526305 -160.71114647 525.29883349 -166 529 C-166.67160156 529.43183594 -167.34320313 529.86367188 -168.03515625 530.30859375 C-170.66600501 532.04268503 -172.72945941 533.57654517 -174.4375 536.25 C-175.82225203 543.01989883 -175.45869144 548.14588491 -172.16796875 554.2734375 C-170.92455455 556.11152805 -169.69712785 557.56804837 -168 559 C-165.5075961 558.85757692 -163.48119646 558.19722859 -161.1796875 557.25390625 C-154.79541914 554.63760804 -150.10398973 554.05302008 -143.3125 556.125 C-138.93367696 558.60357908 -135.88160508 561.11029447 -134.3671875 566.07421875 C-133.41935041 571.85199164 -134.29824376 576.81703905 -137 582 C-144.57883273 592.52823069 -155.50090768 599.10761594 -168.25390625 601.40625 C-170.50486092 601.68810867 -172.73520371 601.87307621 -175 602 C-175.68449219 602.04125 -176.36898437 602.0825 -177.07421875 602.125 C-195.05568051 602.65679924 -210.68360139 597.27255323 -224.6875 586.1875 C-225.450625 585.465625 -226.21375 584.74375 -227 584 C-227 583.34 -227 582.68 -227 582 C-227.99 581.67 -228.98 581.34 -230 581 C-241.74125835 565.99202058 -244.25509838 550.66848617 -242.7578125 531.9765625 C-241.18283177 519.98742345 -235.79022032 508.97325637 -230.00390625 498.48828125 C-228.86020609 496.15527015 -228.86020609 496.15527015 -229.09375 494.1171875 C-230.47597977 490.88801277 -232.21259966 487.86650309 -233.9375 484.8125 C-237.00994237 479.24572666 -239.10691176 474.36325374 -240 468 C-249.54686743 468.76420564 -258.83250076 469.93599393 -268.125 472.3125 C-268.89303955 472.50094482 -269.6610791 472.68938965 -270.45239258 472.88354492 C-275.96336391 474.36941365 -280.3172494 476.77117066 -285 480 C-286.2684375 480.8353125 -286.2684375 480.8353125 -287.5625 481.6875 C-289.63242738 485.01738318 -289.16520754 487.57789598 -288.62890625 491.3828125 C-287.67840495 495.33831482 -286.0217906 498.47817121 -284 502 C-280.47015836 502.41527549 -279.21574754 502.15200395 -276.25 500.0625 C-272.13555564 497.45141031 -268.83947421 496.79729951 -264 497 C-258.10225544 498.67102762 -255.47475159 501.19666692 -252 506 C-249.86112849 510.27774303 -250.44558708 515.36708414 -251 520 C-254.20298625 529.46969848 -261.1453818 536.65927635 -269.73828125 541.5625 C-272.47333559 542.86232781 -275.14353476 543.99140274 -278 545 C-278.72928711 545.25821533 -279.45857422 545.51643066 -280.20996094 545.7824707 C-286.3140688 547.79744795 -291.83742201 548.51412528 -298.25 548.4375 C-299.16458984 548.42847656 -300.07917969 548.41945313 -301.02148438 548.41015625 C-315.87295338 548.0339051 -328.84906678 542.90306396 -339.875 532.6875 C-352.55250577 518.81459666 -355.73703671 503.29362911 -355 485 C-353.50383821 470.30352466 -346.91450246 455.02988399 -337 444 C-336.34 444 -335.68 444 -335 444 C-334.5978125 443.13375 -334.5978125 443.13375 -334.1875 442.25 C-332.98280141 439.9674132 -331.59201885 438.0262058 -330 436 C-330.67289062 435.8865625 -331.34578125 435.773125 -332.0390625 435.65625 C-347.4242234 432.24634627 -361.97786821 424.04760287 -374 414 C-374.77472656 413.35804688 -375.54945313 412.71609375 -376.34765625 412.0546875 C-392.35561237 398.24875316 -401.95051767 381.45956051 -407 361 C-407.17370117 360.37577148 -407.34740234 359.75154297 -407.52636719 359.10839844 C-413.09818205 337.42698695 -409.59324888 312.24802514 -398.265625 293.0625 C-395.42650495 288.50049514 -392.54847611 284.04918132 -389 280 C-388.34 280 -387.68 280 -387 280 C-386.67 279.01 -386.34 278.02 -386 277 C-372.80137045 265.16333034 -356.20217903 260.64962649 -338.828125 260.84375 C-323.07397322 261.71414513 -309.78124057 267.35694098 -298.90234375 278.84765625 C-294.04224181 284.34645741 -291.47519268 290.17762018 -289 297 C-288.6390625 297.92167969 -288.278125 298.84335937 -287.90625 299.79296875 C-286.79905082 303.71111757 -286.61598966 307.26009844 -286.625 311.3125 C-286.62661133 312.06362061 -286.62822266 312.81474121 -286.62988281 313.58862305 C-286.78877051 320.78296442 -288.48945357 325.86181696 -293 331.5 C-297.32715729 334.74536797 -302.80396087 334.4763771 -308 334 C-313.77690251 332.20716819 -317.67019985 329.06659041 -322 325 C-323.65 325.66 -325.3 326.32 -327 327 C-327.2165625 328.670625 -327.2165625 328.670625 -327.4375 330.375 C-328 334 -328 334 -329 336 C-329.88878741 343.99908669 -327.71930714 349.49943594 -323 356 C-319.33303145 359.52230255 -316.00652899 360.87899387 -311.125 362.1875 C-309.36542969 362.67283203 -309.36542969 362.67283203 -307.5703125 363.16796875 C-290.69033626 367.10170501 -272.48260335 366.17214611 -257 358 C-256.18917969 357.57976562 -255.37835938 357.15953125 -254.54296875 356.7265625 C-244.11032307 350.92530638 -236.68353835 343.03976897 -232 332 C-228.47426592 317.3779372 -235.88886082 303.47066311 -243 291 C-243.63421875 290.06800781 -244.2684375 289.13601563 -244.921875 288.17578125 C-260.66609409 264.11553667 -270.26976922 232.73299356 -271 204 C-271.02046387 203.22640137 -271.04092773 202.45280273 -271.06201172 201.65576172 C-271.29789577 191.28661089 -271.09296843 181.01743677 -270.125 170.6875 C-270.04660889 169.84703125 -269.96821777 169.0065625 -269.88745117 168.140625 C-269.31473764 162.64960358 -268.30913433 157.36047535 -267 152 C-266.71640625 150.81277344 -266.4328125 149.62554687 -266.140625 148.40234375 C-263.72111312 138.98959359 -260.54679144 130.04236938 -257 121 C-256.69578125 120.154375 -256.3915625 119.30875 -256.078125 118.4375 C-250.4319 103.09681321 -241.57548582 89.14438569 -232 76 C-231.44183594 75.19433594 -230.88367188 74.38867188 -230.30859375 73.55859375 C-229.87675781 73.04425781 -229.44492187 72.52992188 -229 72 C-228.34 72 -227.68 72 -227 72 C-226.75507813 71.43925781 -226.51015625 70.87851562 -226.2578125 70.30078125 C-222.47286587 63.37738509 -215.93686017 57.66760386 -209.921875 52.66796875 C-207.87403911 50.93536279 -207.87403911 50.93536279 -205.64453125 48.6015625 C-199.26378252 42.32448916 -184.21495505 28 -175 28 C-175 27.34 -175 26.68 -175 26 C-145.45510129 10.8652835 -145.45510129 10.8652835 -131 7 C-129.60100363 6.53014839 -128.20519468 6.050714 -126.8125 5.5625 C-86.83041648 -7.83500518 -41.08078455 -8.83714551 0 0 Z M-65.80664062 -2.96191406 C-117.40410714 -1.9947083 -170.50584197 18.40909872 -208 54 C-209.34879668 55.15214969 -210.7026303 56.29844083 -212.0625 57.4375 C-236.01566645 78.4208633 -250.16784244 107.30682172 -260 137 C-260.26723877 137.79067871 -260.53447754 138.58135742 -260.80981445 139.39599609 C-266.61764754 156.6063803 -268.41562536 173.45150788 -268.375 191.5 C-268.37512085 192.32983398 -268.3752417 193.15966797 -268.37536621 194.01464844 C-268.34712514 207.6806973 -267.27872075 220.68897924 -264 234 C-263.566875 235.87751953 -263.566875 235.87751953 -263.125 237.79296875 C-258.32633554 256.40921615 -249.68733925 274.08678915 -240.18066406 290.70922852 C-236.46944873 297.22051001 -233.05412064 303.67727171 -230.375 310.6875 C-230.12733887 311.32236328 -229.87967773 311.95722656 -229.62451172 312.61132812 C-226.36729047 321.63280037 -228.62226527 329.38311635 -232 338 C-239.51846348 352.38691571 -252.26104635 360.21641953 -267.32421875 364.95703125 C-268.53722656 365.30121094 -269.75023437 365.64539063 -271 366 C-271.64388672 366.18836426 -272.28777344 366.37672852 -272.95117188 366.57080078 C-277.73829328 367.88924795 -282.16954521 368.31719261 -287.125 368.25 C-287.86000732 368.24323242 -288.59501465 368.23646484 -289.35229492 368.22949219 C-301.06867211 368.01188967 -315.49115321 367.26247187 -324.9375 359.625 C-325.618125 358.75875 -326.29875 357.8925 -327 357 C-327.845625 356.0925 -328.69125 355.185 -329.5625 354.25 C-334.6682464 347.90013186 -336.6606948 341.58435567 -336.3203125 333.44921875 C-335.74430669 329.04488167 -333.89664658 326.9509888 -330.9375 323.8125 C-326.8453983 321.28758619 -322.71036043 320.69512115 -318 320 C-317.773125 320.721875 -317.54625 321.44375 -317.3125 322.1875 C-315.49605306 326.0798863 -312.87725027 329.06137486 -309 331 C-303.7173218 331.59547097 -299.43662192 332.0176072 -295 328.875 C-289.43321208 320.87274237 -289.01834814 313.45302958 -290 304 C-292.58442933 290.90863478 -300.18939683 279.71756949 -311 272 C-325.45356159 263.90461574 -342.94032026 260.75888745 -359.26171875 264.91015625 C-362.6579373 266.07211881 -365.79545397 267.38705939 -369 269 C-369.89589844 269.44601562 -370.79179687 269.89203125 -371.71484375 270.3515625 C-388.39554671 279.5529364 -399.17390651 295.39444408 -404.45703125 313.453125 C-406.17213537 321.49807383 -406.21506302 329.4904114 -406.25 337.6875 C-406.270625 338.87794922 -406.29125 340.06839844 -406.3125 341.29492188 C-406.42384305 366.88990552 -395.1648688 389.44059803 -377.59765625 407.46484375 C-362.53297633 421.72741093 -344.39020235 429.37682976 -325 436 C-325.54527344 436.49886719 -326.09054687 436.99773437 -326.65234375 437.51171875 C-341.86216179 451.9935455 -351.60128795 469.76843761 -352.33007812 490.87792969 C-352.61574996 506.75755747 -348.18526015 519.58155584 -337.1875 531.3125 C-324.48557198 543.21143257 -310.0255647 545.91624593 -293.19921875 545.3828125 C-282.74344628 544.78705266 -274.58064832 540.77330127 -266 535 C-264.63875 534.13375 -264.63875 534.13375 -263.25 533.25 C-258.27762047 528.27762047 -253.89204491 521.35524433 -253.6875 514.25 C-253.73652657 509.40337364 -254.68271204 506.68587551 -258 503 C-262.43129373 500.26579748 -266.94177271 500.32770397 -272 501 C-275.3669115 502.74348693 -275.3669115 502.74348693 -278 505 C-279.3191582 505.69429379 -280.64649406 506.37530495 -282 507 C-288.25695621 503.50774537 -291.73058234 498.80825298 -294 492 C-294.72861419 487.70342974 -295.116502 483.75739439 -292.70703125 479.96484375 C-283.00104022 470.5485838 -267.55045226 468.8649806 -254.75 466.75 C-252.51017571 466.36922505 -250.27100844 465.98492547 -248.0322876 465.59771729 C-246.03401798 465.25368226 -244.03413773 464.91904084 -242.03417969 464.58496094 C-239.09469847 464.1597693 -239.09469847 464.1597693 -237 463 C-237.1546875 464.60875 -237.1546875 464.60875 -237.3125 466.25 C-237.27944355 475.60497439 -231.89454779 483.76835005 -226.2578125 490.84375 C-225 493 -225 493 -225.07421875 494.8671875 C-226.11140169 497.25664692 -227.33254783 499.50923329 -228.62890625 501.76733398 C-238.76302966 519.55113127 -243.04443758 537.35707454 -239.296875 557.84375 C-238.41423631 560.7459857 -237.38081364 563.30269634 -236 566 C-235.56429687 566.86238281 -235.12859375 567.72476563 -234.6796875 568.61328125 C-226.32067002 583.66408049 -213.43092329 593.19821619 -196.99609375 597.9296875 C-181.62899941 601.66604891 -165.5495487 599.81849621 -151.6875 592.3125 C-145.15226796 588.11204091 -139.44308375 582.49528608 -137 575 C-136.55027099 570.27784534 -136.53685824 567.98186054 -138.5625 563.6875 C-142.35406341 559.50705829 -146.02819006 558.2421521 -151.5625 557.5625 C-155.68454581 558.08712401 -157.74050555 559.48129975 -161 562 C-164 564 -164 564 -166.875 563.9375 C-172.0353574 562.38939278 -174.22950941 559.06202758 -177.3125 554.8125 C-180.4179902 548.99286187 -179.58599516 542.76519132 -178.046875 536.57421875 C-176.0238086 530.78545054 -171.95736806 528.60331767 -166.8125 525.6875 C-165.98685547 525.18927734 -165.16121094 524.69105469 -164.31054688 524.17773438 C-157.84791031 520.32256032 -151.26136661 516.72659718 -144.1875 514.125 C-129.32015757 508.23716867 -118.72891822 499.57481294 -109 487 C-109.15146484 487.68175293 -109.30292969 488.36350586 -109.45898438 489.06591797 C-115.92495693 518.87405147 -117.9643827 548.70817897 -101.6875 575.75 C-93.49047951 587.95795572 -81.81551204 596.27257285 -67.375 599.546875 C-66.59125 599.69640625 -65.8075 599.8459375 -65 600 C-63.865625 600.226875 -62.73125 600.45375 -61.5625 600.6875 C-56.36053586 601.14381264 -51.2174093 601.13464282 -46 601 C-45.19691406 600.99484375 -44.39382813 600.9896875 -43.56640625 600.984375 C-29.94437436 600.34117619 -16.38258627 593.52320696 -6.94921875 583.91015625 C1.92173337 573.40558126 4.6343644 561.40975865 4 548 C2.27339098 536.10558227 -4.30267556 524.80992079 -13.83203125 517.6171875 C-20.30465977 513.2142182 -28.0713335 509.61428109 -36 510 C-35.62230469 509.42636719 -35.24460937 508.85273437 -34.85546875 508.26171875 C-26.46568162 495.31354611 -18.60082012 481.95363241 -12 468 C-11.70867187 468.82242187 -11.41734375 469.64484375 -11.1171875 470.4921875 C-3.37450778 491.57759832 9.31130818 506.78477848 29.8125 516.3125 C32.57431685 517.53337483 35.33881187 518.73165674 38.13671875 519.8671875 C48.67300176 524.50580266 62.56214128 536.23447668 67 547 C67.6492059 553.49205899 66.31245345 557.43981028 63 563 C60.3125 563.3125 60.3125 563.3125 57 563 C54.375 560.625 54.375 560.625 52 558 C47.54583286 555.28794897 43.05935191 554.89205617 38 556 C34.66667868 558.11798646 32.74138264 560.46716302 31 564 C29.71637517 570.11713624 30.52233099 575.71139321 33.68359375 581.09765625 C40.5658256 591.04319605 49.24079562 597.0229101 61 600 C64.03620811 600.40757794 67.00177036 600.478575 70.0625 600.4375 C71.29250732 600.42396484 71.29250732 600.42396484 72.54736328 600.41015625 C88.03173201 599.97928686 101.38131763 595.298068 112.9375 584.625 C116.6908436 580.50932868 119.49490807 575.95964886 122 571 C122.41636719 570.18660156 122.83273437 569.37320313 123.26171875 568.53515625 C130.15014207 552.07544999 126.51337644 531.9778265 120.3125 516 C119.65701172 514.4221875 119.65701172 514.4221875 118.98828125 512.8125 C118 510 118 510 118 506 C119.5390625 504.2109375 119.5390625 504.2109375 121.625 502.375 C129.93105499 494.48057251 134.67788422 484.25265564 136.6875 473.0625 C136.81705078 472.37865234 136.94660156 471.69480469 137.08007812 470.99023438 C137.39389598 469.32816202 137.69799166 467.66425873 138 466 C138.70640625 466.12117188 139.4128125 466.24234375 140.140625 466.3671875 C145.35720567 467.21914163 150.51964396 467.98998185 155.7890625 468.40234375 C168.63089335 469.41764595 182.35449303 471.01586977 193 479 C196.85439188 484.0977441 196.76433491 489.86833546 196 496 C194.70456668 500.58276947 192.9224127 504.00279709 189.6875 507.5 C186.18978085 509.45221534 184.03312546 510.13907329 180 510 C177.92111449 508.65607401 176.24348223 507.18008549 174.48046875 505.4453125 C172.01268496 503.03613044 170.09987015 502.7957441 166.75 502.6875 C162.10249011 502.74727505 159.5482927 503.8741231 156 507 C152.91238778 510.60221426 152.4207287 513.92260568 152.58203125 518.53125 C153.88903556 526.2511259 158.86038063 534.00985751 165.15234375 538.5546875 C179.8646009 547.89801669 197.26322906 550.69294752 214.3125 546.9375 C230.24871625 542.16109905 241.95463889 533.68697433 250 519 C256.98318218 505.27368253 258.66398578 488.89447869 254.16796875 473.9921875 C248.15414204 458.58552776 239.54569353 445.95999249 227 435 C226.34 435 225.68 435 225 435 C225 434.34 225 433.68 225 433 C226.175625 432.79375 227.35125 432.5875 228.5625 432.375 C250.58900852 427.42249887 271.673151 413.69010476 284.21484375 394.86328125 C299.26551746 370.72292275 305.33438144 343.15781474 299.1015625 314.99609375 C296.12956048 303.42347021 290.66717495 293.14518458 283 284 C282.48179687 283.35804688 281.96359375 282.71609375 281.4296875 282.0546875 C272.55252071 272.10690763 257.83744193 265.65903363 244.65136719 264.85717773 C226.43698013 264.19554402 212.21036132 266.43973131 198.25 279.1875 C188.52740526 289.5426491 184.56516164 302.25750115 184.71875 316.21484375 C185.29732434 321.94433689 187.48500877 326.32122593 191.3125 330.5625 C194.90825587 332.48581128 196.95647787 332.54827419 201 332 C208.05795468 329.52839415 211.74295613 325.68402046 215 319 C220.01319327 318.64333012 223.85303903 318.43694643 228.4375 320.6875 C231.74996775 323.67680016 233.68361399 326.2880819 234.50390625 330.7265625 C234.66950516 338.91818843 232.70955023 344.32637726 228 351 C227.52820313 351.6703125 227.05640625 352.340625 226.5703125 353.03125 C219.20895613 361.72756737 205.83288863 364.6216839 195 366 C191.16058628 366.25103859 187.34647917 366.28114558 183.5 366.25 C182.54480469 366.25773437 181.58960938 366.26546875 180.60546875 366.2734375 C162.95206991 366.22566105 146.67792813 360.4137853 133.6875 348.1875 C126.83801498 340.98567522 122.51431873 333.4612823 122.6796875 323.52734375 C123.72155233 312.05412496 128.57100117 303.72701215 135.0559082 294.54760742 C139.73887993 287.76082614 143.3871509 280.62078837 146.9375 273.1875 C147.46859375 272.07922852 147.9996875 270.97095703 148.546875 269.82910156 C154.40055444 257.3622463 158.74324591 245.13699417 161.75 231.6875 C162.05521579 230.36896127 162.36120321 229.05060091 162.66796875 227.73242188 C165.31318694 216.15812274 166.23832375 205.63625322 166.25 193.75 C166.25100708 193.0395755 166.25201416 192.329151 166.25305176 191.59719849 C166.237402 175.23837017 164.41737992 159.73042199 159.61865234 144.03466797 C159.1823789 142.59982072 158.75945612 141.16088089 158.34619141 139.71923828 C150.70554503 113.21358609 136.97298326 89.01354906 118 69 C116.53999124 67.33480082 115.08168987 65.66810327 113.625 64 C76.68310753 23.2561975 18.14722563 0.45161598 -36 -3 C-40.31369335 -3.13121501 -44.62207015 -3.14365863 -48.9375 -3.125 C-50.12190674 -3.12016602 -51.30631348 -3.11533203 -52.52661133 -3.11035156 C-56.95363593 -3.0804453 -61.37994744 -3.02198401 -65.80664062 -2.96191406 Z " fill="#FEF8F3" transform="translate(568,205)"/>
<path d="M0 0 C8.52339824 4.92919416 13.66462457 10.59180886 18.26953125 19.3125 C18.70523438 20.12074219 19.1409375 20.92898438 19.58984375 21.76171875 C24.80061657 33.36753093 23.75867247 48.8444828 19.4609375 60.5546875 C15.03157808 70.80756537 8.93512267 79.67597461 -1.5625 84.4609375 C-10.18404125 86.77844181 -21.10872174 87.08474356 -29.35546875 83.375 C-40.71352919 76.35797837 -47.46348812 66.49212551 -50.54614258 53.72924805 C-53.78560268 38.59840779 -51.84028061 24.73784621 -43.42578125 11.56640625 C-33.38463028 -1.78323455 -15.44332987 -7.37591874 0 0 Z " fill="#272625" transform="translate(623.73046875,385.6875)"/>
<path d="M0 0 C10.28749822 6.24598106 17.4985435 14.40714953 21.375 25.875 C24.730612 39.89666445 23.7986456 55.84456053 16.5625 68.375 C15.55842933 69.92763611 14.53971667 71.47100489 13.5 73 C12.901875 73.9075 12.30375 74.815 11.6875 75.75 C4.72752905 82.90882726 -3.5860573 86.43676736 -13.4375 87.375 C-24.78832924 86.82465676 -32.67958968 82.2888535 -40.25 74.125 C-48.13135228 64.59946539 -52.38521169 51.10911866 -51.81640625 38.7421875 C-50.35476304 26.07461302 -46.41669173 14.57586251 -36.80078125 5.79296875 C-26.28617506 -2.4009264 -12.58576908 -5.74397249 0 0 Z " fill="#262625" transform="translate(436.5,385)"/>
<path d="M0 0 C0.99 0.33 1.98 0.66 3 1 C3.76431901 2.67194784 4.51843441 4.35027449 5.19140625 6.06103516 C13.95333788 27.0716816 33.64637073 43.24228416 54 52 C58.92537017 53.99677169 63.82467995 55.77738999 69 57 C69.47049064 71.21927257 66.10102864 82.68599223 56.375 93.4375 C55.64023437 94.19933594 54.90546875 94.96117187 54.1484375 95.74609375 C51.94321142 98.05957639 49.96410338 100.48043752 48 103 C47.649375 102.071875 47.29875 101.14375 46.9375 100.1875 C43.23820354 91.59614326 37.38133437 84.07402022 31.8671875 76.5859375 C25 67.07531381 25 67.07531381 25 64 C24.34 64 23.68 64 23 64 C12.3706383 43.23823377 3.49599769 23.22138302 0 0 Z " fill="#E55310" transform="translate(635,612)"/>
<path d="M0 0 C6.76633509 4.01589735 11.08437017 10.1648341 14.546875 17.08984375 C14.546875 18.40984375 14.546875 19.72984375 14.546875 21.08984375 C13.90621094 21.16460938 13.26554687 21.239375 12.60546875 21.31640625 C6.18147932 22.29292923 1.77581994 24.00735029 -2.453125 29.08984375 C-4.8636291 36.32135605 -4.03364697 42.67796145 -0.703125 49.46484375 C2.04350509 54.6113072 5.31315456 59.06780933 9.546875 63.08984375 C-2.93552427 60.75309128 -16.16192059 49.15526252 -23.453125 39.08984375 C-28.50035895 30.982296 -31.61934283 23.76945172 -30.453125 14.08984375 C-28.31271257 7.73307673 -23.17426228 3.41157898 -17.625 -0.05078125 C-12.2988341 -2.15825697 -5.33380711 -1.97894436 0 0 Z " fill="#FCC771" transform="translate(235.453125,503.91015625)"/>
<path d="M0 0 C0.33 0 0.66 0 1 0 C2.23984216 16.56566881 -4.66056934 30.84334866 -12.25 45.0625 C-12.93835938 46.3609082 -12.93835938 46.3609082 -13.640625 47.68554688 C-14.75775308 49.79179878 -15.87757167 51.89656932 -17 54 C-17.66 54 -18.32 54 -19 54 C-19.33064453 55.01126953 -19.33064453 55.01126953 -19.66796875 56.04296875 C-21.40023527 59.88849882 -23.75547236 62.97610994 -26.3125 66.3125 C-26.83360352 67.00021484 -27.35470703 67.68792969 -27.89160156 68.39648438 C-33.74921696 76.07438073 -39.85734551 83.54955455 -46 91 C-52.75309763 84.55594243 -59.42927147 75.38142234 -60.17578125 65.7265625 C-60.18583244 63.81683571 -60.10216172 61.90701873 -60 60 C-61.32 59.67 -62.64 59.34 -64 59 C-63.27296875 58.84144531 -62.5459375 58.68289063 -61.796875 58.51953125 C-37.92135393 52.97918598 -21.05066812 39.32189166 -7.79296875 18.9609375 C-4.14112023 12.93021598 -1.73913529 6.8116132 0 0 Z " fill="#E55312" transform="translate(391,608)"/>
<path d="M0 0 C2.22397016 1.46198694 4.18146507 2.9475914 6.1328125 4.75390625 C6.96039062 5.47126953 6.96039062 5.47126953 7.8046875 6.203125 C11.18771457 10.15330661 10.64583234 16.24294918 10.6015625 21.16796875 C9.47648845 29.77478522 4.17780326 37.85060962 -2.14453125 43.6953125 C-7.51168845 47.75340697 -13.24561056 51.27269345 -19.015625 54.7265625 C-19.70833496 55.14172119 -20.40104492 55.55687988 -21.11474609 55.98461914 C-21.69305176 56.23848389 -22.27135742 56.49234863 -22.8671875 56.75390625 C-23.5271875 56.42390625 -24.1871875 56.09390625 -24.8671875 55.75390625 C-24.43148437 55.37621094 -23.99578125 54.99851562 -23.546875 54.609375 C-17.57584515 49.09069589 -12.68147747 42.78882894 -11.35546875 34.58984375 C-11.18345046 29.80892158 -11.49264952 26.54459754 -13.5546875 22.19140625 C-16.80986986 18.76026809 -18.75953148 16.88786744 -23.6328125 16.578125 C-26.38499844 16.56753967 -29.11834502 16.62392596 -31.8671875 16.75390625 C-31.56556868 10.7215299 -28.85182776 7.03944612 -24.8671875 2.75390625 C-18.2215259 -2.90197597 -7.94215235 -3.45169837 0 0 Z " fill="#FCC56F" transform="translate(813.8671875,507.24609375)"/>
<path d="M0 0 C0.66 0 1.32 0 2 0 C2.4125 1.134375 2.825 2.26875 3.25 3.4375 C10.17240172 21.72788252 20.04864848 42.37815767 34.19604492 56.13549805 C36 58 36 58 36 60 C36.66 60 37.32 60 38 60 C38 60.66 38 61.32 38 62 C38.66 62 39.32 62 40 62 C42.125 63.875 42.125 63.875 44 66 C44 66.66 44 67.32 44 68 C44.99 68.495 44.99 68.495 46 69 C31.92286934 67.60114048 19.99846213 57.76215908 10.875 47.5 C4.16142165 39.17685713 -4.3688798 26.254636 -3.8125 15.3125 C-2.98382041 10.10798797 -1.47641742 5.05139041 0 0 Z " fill="#E35111" transform="translate(560,654)"/>
<path d="M0 0 C0.33 0 0.66 0 1 0 C0.72572326 8.25572979 -0.49991456 15.58547521 -2.98828125 23.4609375 C-3.99972455 26.99903646 -4.52634555 30.42632473 -5.0625 34.0625 C-7.34108825 45.09631591 -16.30070842 53.50172996 -25.0703125 60.0859375 C-34.35559523 66.15232222 -43.82279043 71.75808783 -55 73 C-54.33484375 72.49597656 -53.6696875 71.99195313 -52.984375 71.47265625 C-42.60804093 62.87551036 -33.12256404 52.73747399 -25 42 C-24.32839844 41.12214844 -23.65679687 40.24429688 -22.96484375 39.33984375 C-14.6662027 28.22702 -8.00969022 16.4579254 -2 4 C-1.33593877 2.66536713 -0.67057004 1.33137449 0 0 Z " fill="#E45211" transform="translate(468,649)"/>
<path d="M0 0 C6.35647787 1.99868634 8.76352876 6.44605553 12 12 C15.57916845 19.4220651 16.20577089 26.91377642 13.875 34.8125 C11.74764391 38.42900535 9.80456665 41.17348897 6 43 C1.42750671 44.0799356 -2.28454951 44.00793245 -6.38671875 41.59765625 C-10.3626194 38.33556182 -12.34156101 36.2224134 -13 31 C-11.783125 30.62875 -10.56625 30.2575 -9.3125 29.875 C-3.76476866 27.78355438 -1.29912575 24.66011464 1.3125 19.3125 C2.70206542 12.61732115 2.86413328 6.28518136 0 0 Z " fill="#FCA954" transform="translate(762,685)"/>
<path d="M0 0 C3.43403788 2.00011167 6.21175747 4.42351494 8 8 C8.52499368 11.74995483 8.80572852 15.41194587 7.05859375 18.85546875 C4.49187303 22.11415806 2.01754406 24.06568743 -2 25 C-6.90750817 25.46738173 -9.00915801 25.53211885 -13.375 23.1875 C-16.08719032 20.9273414 -17.76248056 19.30635694 -18.40625 15.765625 C-18.58978424 10.84078949 -18.39046788 7.78438045 -15.125 3.9375 C-10.69714558 -0.60800272 -6.17759569 -1.00501184 0 0 Z " fill="#FDFBF9" transform="translate(529,743)"/>
<path d="M0 0 C1 2 1 2 0.5625 4 C-0.99056116 12.28299288 -0.29038634 17.64364163 4.19921875 24.87109375 C7.13297384 28.33941593 10.96201794 30.05578642 15 32 C13.73299277 32.9841125 12.4612381 33.96211497 11.1875 34.9375 C10.47980469 35.48277344 9.77210938 36.02804687 9.04296875 36.58984375 C5.12290934 39.29565914 1.64801109 39.32055249 -3 39 C-6.72382993 37.61438886 -8.39516917 35.74038488 -10.3125 32.375 C-13.14351867 26.04276231 -12.74493492 20.47423197 -10.5 14 C-8.08253753 8.41180778 -4.25670058 4.27736418 0 0 Z " fill="#FCA951" transform="translate(389,739)"/>
<path d="M0 0 C3.92576274 2.30456812 6.55149666 4.65448999 8 9 C8.66244443 14.85159247 8.66244443 14.85159247 6.98828125 17.75390625 C4.19759255 21.23179157 2.12217397 22.7158445 -2.3046875 23.30859375 C-9.11387978 23.6500882 -9.11387978 23.6500882 -11.73046875 21.73046875 C-15.55471427 17.1211875 -16.49351213 13.92214559 -16 8 C-12.12457605 0.91732864 -7.90354014 -1.53098377 0 0 Z " fill="#FDA752" transform="translate(190,524)"/>
<path d="M0 0 C2.92644884 1.46024433 4.51019787 3.09266227 6 6 C7.0689158 10.62511642 7.27857799 14.87715464 4.76953125 19.04296875 C1.49739939 22.31510061 -1.53180244 23.41245823 -6.125 23.6875 C-9.91675911 23.45664709 -10.90298949 23.07325283 -14.0625 20.6875 C-17.12010472 16.44630636 -17.43651226 13.15084464 -17 8 C-13.13480357 0.68373532 -8.06016673 -1.51737163 0 0 Z " fill="#FDA24C" transform="translate(847,522)"/>
<path d="M0 0 C2.47666626 3.71499939 2.76343956 6.69550037 2 11 C0.07114735 14.42215793 -1.33142526 16.46291808 -5.16015625 17.6953125 C-8.96477962 18.29236525 -11.3598544 18.27240238 -14.9375 16.75 C-17.42003145 14.64360968 -18.84560249 12.95888979 -19.37109375 9.6953125 C-19.55054851 2.74935769 -19.55054851 2.74935769 -16.75 -1.0625 C-10.71623501 -5.3135617 -5.92787517 -4.1655339 0 0 Z " fill="#FDA14B" transform="translate(236,588)"/>
<path d="M0 0 C4.02247093 0.79012822 6.32868925 2.12024844 9.5 4.6875 C11.2473737 8.18224739 11.05225821 11.87428856 10.5 15.6875 C8.625 18.75 8.625 18.75 5.5 20.6875 C0.93186442 21.51404473 -2.96845096 21.54666166 -7.0625 19.25 C-9.20220279 15.43574721 -10.04282166 12.05941501 -9.5 7.6875 C-7.31546466 3.18702869 -4.92017721 0.96646338 0 0 Z " fill="#FD9D46" transform="translate(843.5,558.3125)"/>
<path d="M0 0 C2.875 2.5 2.875 2.5 5 5 C5.33 5.33 5.66 5.66 6 6 C6.56121845 10.02206555 6.135095 11.76903112 4.0625 15.3125 C1.18010992 18.42482433 -1.69260652 19.031618 -5.84375 19.24609375 C-9.14735835 18.86905149 -10.80313804 17.40281776 -13 15 C-14.57455739 11.85088521 -14.34799118 9.47991184 -14 6 C-10.27176785 -0.2600913 -7.03463167 -1.66923463 0 0 Z " fill="#F5F5F5" transform="translate(625,400)"/>
<path d="M0 0 C3.6286579 3.03622396 4.80828728 4.9072375 5.625 9.5625 C4.84380508 13.85907207 3.34762132 15.29002083 0 18 C-3.17878694 19.58939347 -5.4956772 19.41576711 -9 19 C-12.19275507 16.3506926 -13.62341084 14.77272458 -14.48046875 10.73828125 C-14.72449948 6.748049 -14.50967817 4.67409049 -12.0625 1.4375 C-7.92358987 -0.50525374 -4.48448219 -1.06232761 0 0 Z " fill="#F9F8F9" transform="translate(439,400)"/>
<path d="M0 0 C3.69059994 0.87426509 5.13063077 2.36922768 7.16015625 5.51171875 C7.79480821 8.32232027 7.79055099 10.70049896 7.16015625 13.51171875 C5.36651714 16.32175335 4.1413469 18.02112343 1.16015625 19.51171875 C-1.80379757 19.91589427 -3.92889301 20.07554046 -6.53125 18.46484375 C-9.85444233 15.74222835 -11.63221301 14.03434415 -12.21484375 9.76171875 C-11.81373148 6.28541238 -10.92622175 4.24227363 -8.53125 1.65625 C-5.75515258 -0.22226396 -3.27865494 -0.24630964 0 0 Z " fill="#FC9D47" transform="translate(815.83984375,560.48828125)"/>
<path d="M0 0 C0.33 0 0.66 0 1 0 C1.08636719 0.7734375 1.17273438 1.546875 1.26171875 2.34375 C2.17679223 9.12704699 3.22776603 14.87251288 8 20 C10.54559968 21.93163315 13.16240661 23.53543567 16 25 C14.4247111 28.32943157 13.31531975 30.20793527 10 32 C6.625 32.625 6.625 32.625 3 32 C-1.71742481 28.35715943 -3.95979292 23.82515963 -5 18 C-5.72194197 11.6228459 -3.70411867 6.66887529 -1 1 C-0.67 0.67 -0.34 0.34 0 0 Z " fill="#FDA34C" transform="translate(272,688)"/>
<path d="M0 0 C3.94310054 0.82147928 5.42613957 2.60990635 8 5.625 C8.33 5.955 8.66 6.285 9 6.625 C9.25831152 10.49967279 9.30066711 13.40406604 7 16.625 C3.78044012 18.92468563 0.87440468 19.17848638 -3 18.625 C-5.85801731 16.63681405 -7.61901083 15.14895669 -8.484375 11.6875 C-8.75726358 7.68513415 -8.24266331 5.9675835 -5.875 2.625 C-3 0.625 -3 0.625 0 0 Z " fill="#FDA049" transform="translate(210,552.375)"/>
<path d="M0 0 C3.44652326 2.44128731 4.78056289 3.82966874 5.5625 8 C4.8491179 11.80470451 3.88381579 13.41196019 1 16 C-2.4375 17.0625 -2.4375 17.0625 -6 17 C-8.80189446 15.23358828 -10.51524911 13.96950178 -12 11 C-12.35173852 7.20122401 -12.52701444 4.85639847 -10.5 1.5625 C-7.02759567 -0.6077527 -3.92105015 -0.89291241 0 0 Z " fill="#FCA04A" transform="translate(198,576)"/>
<path d="M0 0 C4.83099046 4.39180951 5.54893621 8.91343594 6.0390625 15.234375 C5.97073277 20.07212011 4.45758013 23.54241987 1 27 C-1.375 27.4375 -1.375 27.4375 -4 27 C-7.35899161 23.73697958 -8.75316006 20.46784311 -10 16 C-9.071875 15.814375 -8.14375 15.62875 -7.1875 15.4375 C-3.73096821 14.25535995 -3.73096821 14.25535995 -2.1875 10.8125 C-1.05496699 7.17647297 -0.38603828 3.78317517 0 0 Z " fill="#FCA34F" transform="translate(636,753)"/>
<path d="M0 0 C8.58 0.99 17.16 1.98 26 3 C26 3.33 26 3.66 26 4 C17.88679815 4.94851629 10.03815415 5.76755222 2 4 C1.99742187 4.63164063 1.99484375 5.26328125 1.9921875 5.9140625 C1.50544382 17.17406627 -2.78091759 28.04814378 -11 35.9140625 C-11.66 36.47867188 -12.32 37.04328125 -13 37.625 C-13.66 38.19476562 -14.32 38.76453125 -15 39.3515625 C-16.9574488 40.96492851 -18.95788571 42.49576403 -21 44 C-19.65751425 40.95966462 -18.2145579 39.08422082 -15.75 36.875 C-7.63532624 28.99700423 -3.15834882 18.57663965 -1.3125 7.5625 C-0.879375 5.066875 -0.44625 2.57125 0 0 Z " fill="#FDEFE8" transform="translate(705,670)"/>
<path d="M0 0 C2 2 2 2 2.3125 5.4375 C2 9 2 9 0.875 10.9375 C-1.88980433 12.50422245 -3.88188517 12.38976435 -7 12 C-8.875 10.9375 -8.875 10.9375 -10 9 C-10.36841966 5.56141649 -10.58367385 3.09868019 -8.9375 0 C-5.80557344 -1.61647822 -3.32814714 -0.78665296 0 0 Z " fill="#FC9A44" transform="translate(797,592)"/>
<path d="M0 0 C1.30100181 3.90300544 0.35141016 5.05658816 -1.3125 8.75 C-5.81473523 19.1263427 -7.03924337 28.83147323 -7.5625 40 C-7.60568359 40.87011719 -7.64886719 41.74023438 -7.69335938 42.63671875 C-7.79824218 44.75768219 -7.89950075 46.87882433 -8 49 C-8.33 49 -8.66 49 -9 49 C-10.26191188 31.75534433 -10.60139738 17.5847101 -2 2 C-1.34 1.34 -0.68 0.68 0 0 Z " fill="#FEFCF9" transform="translate(170,499)"/>
<path d="M0 0 C0.33 0 0.66 0 1 0 C0.93941406 0.66902344 0.87882813 1.33804688 0.81640625 2.02734375 C0.03274989 11.00925122 -0.49875511 19.99892158 -1 29 C-1.99 28.67 -2.98 28.34 -4 28 C-4.4375 9.98958333 -4.4375 9.98958333 -2 2 C-1.34 1.34 -0.68 0.68 0 0 Z " fill="#FDF1E6" transform="translate(217,677)"/>
<path d="M0 0 C0.33 0 0.66 0 1 0 C1.03758423 1.27677612 1.03758423 1.27677612 1.07592773 2.5793457 C1.17206551 5.79069626 1.27122466 9.00193656 1.37231445 12.21313477 C1.41515886 13.59298151 1.45685973 14.97286433 1.49731445 16.3527832 C1.72035559 23.93342832 2.02119322 31.42427043 2.99633789 38.94995117 C2.99754639 39.62646729 2.99875488 40.3029834 3 41 C2.34 41.66 1.68 42.32 1 43 C-3.16868666 38.83131334 -1.10927733 23.35520014 -1.125 17.625 C-1.12959229 16.6863208 -1.13418457 15.7476416 -1.13891602 14.78051758 C-1.12770656 9.7456767 -0.86121334 4.96222923 0 0 Z " fill="#FEFDFC" transform="translate(298,380)"/>
<path d="M0 0 C0.33 0 0.66 0 1 0 C1 11.88 1 23.76 1 36 C0.01 35.67 -0.98 35.34 -2 35 C-3.59190222 26.04555002 -3.16386588 17.36098523 -2.0625 8.375 C-1.97572998 7.66351807 -1.88895996 6.95203613 -1.79956055 6.21899414 C-1.12940561 1.12940561 -1.12940561 1.12940561 0 0 Z " fill="#FEFEFC" transform="translate(454,710)"/>
<path d="M0 0 C0.66 0.33 1.32 0.66 2 1 C-3.80515951 6.67615597 -9.86330721 10.82341408 -18.25683594 11.06494141 C-23.52812578 10.96740262 -28.75655579 10.53068962 -34 10 C-34 9.67 -34 9.34 -34 9 C-32.71029297 8.96132813 -32.71029297 8.96132813 -31.39453125 8.921875 C-19.77498426 8.36433948 -9.97676172 5.98605703 0 0 Z " fill="#FEF0E6" transform="translate(418,795)"/>
<path d="M0 0 C0.66 0.33 1.32 0.66 2 1 C-1.36947604 6.30442268 -6.16026853 7.39693646 -12 9 C-17.09629529 9.9344406 -21.95883469 10.51234959 -27 9 C-27 8.67 -27 8.34 -27 8 C-26.195625 7.99613281 -26.195625 7.99613281 -25.375 7.9921875 C-18.2084539 7.63857503 -5.32191898 5.32191898 0 0 Z " fill="#FEF0E7" transform="translate(549,797)"/>
<path d="M0 0 C0 0.33 0 0.66 0 1 C-0.56920166 1.02505615 -1.13840332 1.0501123 -1.72485352 1.07592773 C-4.33757313 1.19293894 -6.95002362 1.3151828 -9.5625 1.4375 C-10.45775391 1.47681641 -11.35300781 1.51613281 -12.27539062 1.55664062 C-17.2459999 1.7933363 -22.07327766 2.26830856 -27 3 C-28.64485066 3.06056151 -30.29172957 3.08781955 -31.9375 3.0625 C-32.70964844 3.05347656 -33.48179687 3.04445312 -34.27734375 3.03515625 C-34.84582031 3.02355469 -35.41429687 3.01195312 -36 3 C-35.67 2.34 -35.34 1.68 -35 1 C-32.49262591 0.47391292 -30.1007202 0.09822101 -27.5625 -0.1875 C-26.81492432 -0.27499512 -26.06734863 -0.36249023 -25.29711914 -0.45263672 C-16.81615791 -1.31367483 -8.4697821 -0.73305716 0 0 Z " fill="#FEF1E5" transform="translate(505,202)"/>
<path d="M0 0 C1.03898437 0.13277344 2.07796875 0.26554688 3.1484375 0.40234375 C10.75719945 1.36804314 18.36091435 2.30219891 26 3 C25.67 3.66 25.34 4.32 25 5 C17.16256482 5.27025639 7.11930504 5.55965252 0 2 C0 1.34 0 0.68 0 0 Z " fill="#FEFCFC" transform="translate(368,802)"/>
<path d="M0 0 C6.93 0 13.86 0 21 0 C17.82223457 3.17776543 14.92434829 3.15805241 10.625 3.1875 C9.22121094 3.20876953 9.22121094 3.20876953 7.7890625 3.23046875 C4.83881846 2.98668108 2.67635888 2.23112508 0 1 C0 0.67 0 0.34 0 0 Z " fill="#FFFEFD" transform="translate(506,806)"/>
<path d="M0 0 C0.66 0.33 1.32 0.66 2 1 C1.67 8.59 1.34 16.18 1 24 C0.67 24 0.34 24 0 24 C-0.1958691 20.18788097 -0.38029565 16.37529466 -0.5625 12.5625 C-0.61857422 11.47388672 -0.67464844 10.38527344 -0.73242188 9.26367188 C-0.78076172 8.22919922 -0.82910156 7.19472656 -0.87890625 6.12890625 C-0.9260376 5.17056885 -0.97316895 4.21223145 -1.02172852 3.22485352 C-1 1 -1 1 0 0 Z " fill="#FCDDC1" transform="translate(161,524)"/>
<path d="M0 0 C0.33 0 0.66 0 1 0 C1.04254356 1.99954746 1.04080783 4.00041636 1 6 C0.67 6.33 0.34 6.66 0 7 C0.020625 8.216875 0.04125 9.43375 0.0625 10.6875 C0.12400242 14.48014944 -0.58093877 17.45234693 -2 21 C-2.33 21 -2.66 21 -3 21 C-3.26242569 14.17693216 -2.46285265 7.67359785 -1 1 C-0.67 0.67 -0.34 0.34 0 0 Z " fill="#FA9B5C" transform="translate(304,357)"/>
<path d="M0 0 C-0.99 1.485 -0.99 1.485 -2 3 C-3.87939453 3.2487793 -3.87939453 3.2487793 -6.1328125 3.07421875 C-7.34130859 2.99204102 -7.34130859 2.99204102 -8.57421875 2.90820312 C-9.41597656 2.83537109 -10.25773438 2.76253906 -11.125 2.6875 C-11.97449219 2.62626953 -12.82398438 2.56503906 -13.69921875 2.50195312 C-15.80053665 2.34848609 -17.90045124 2.17602278 -20 2 C-20 1.67 -20 1.34 -20 1 C-17.79187393 0.83060951 -15.58348776 0.66460778 -13.375 0.5 C-12.14523437 0.4071875 -10.91546875 0.314375 -9.6484375 0.21875 C-6.41962143 0.02515931 -3.23321325 -0.03979339 0 0 Z " fill="#FEE8DA" transform="translate(654,804)"/>
<path d="M0 0 C1.03864166 3.11592499 1.09036928 4.0262656 0 7 C-0.99 7.495 -0.99 7.495 -2 8 C-2.4683265 10.58605332 -2.4683265 10.58605332 -2.625 13.5625 C-2.69976563 14.57441406 -2.77453125 15.58632813 -2.8515625 16.62890625 C-2.90054688 17.41136719 -2.94953125 18.19382812 -3 19 C-3.33 19 -3.66 19 -4 19 C-4.05441656 17.10448978 -4.09298035 15.2085208 -4.125 13.3125 C-4.14820313 12.25675781 -4.17140625 11.20101562 -4.1953125 10.11328125 C-3.92656016 5.82936893 -3.04732617 3.04732617 0 0 Z " fill="#FDECE0" transform="translate(694,518)"/>
<path d="M0 0 C0 4.16751495 -2.23872302 6.14170518 -5 9 C-6.63072616 10.37705764 -8.2866438 11.72722111 -10 13 C-10.66 12.67 -11.32 12.34 -12 12 C-8.39424999 7.41086363 -4.52615993 3.67832017 0 0 Z " fill="#FFFEFE" transform="translate(814,732)"/>
<path d="M0 0 C0.33 0 0.66 0 1 0 C1.05410687 1.77049689 1.09284119 3.54146849 1.125 5.3125 C1.14820313 6.29863281 1.17140625 7.28476562 1.1953125 8.30078125 C1 11 1 11 -1 14 C-1.33 13.34 -1.66 12.68 -2 12 C-2.99 12.495 -2.99 12.495 -4 13 C-3.52140759 11.39566191 -3.04210442 9.79153584 -2.5625 8.1875 C-2.29566406 7.29417969 -2.02882813 6.40085937 -1.75390625 5.48046875 C-1.19612127 3.64526945 -0.60655425 1.81966274 0 0 Z " fill="#E95F16" transform="translate(391,608)"/>
<path d="M0 0 C6.84817102 0.48641215 13.33042073 1.35993952 20 3 C19.01 3.66 18.02 4.32 17 5 C16.67 4.67 16.34 4.34 16 4 C12.79402645 3.55430975 9.58967306 3.17746551 6.37109375 2.83789062 C4.57166433 2.62466344 2.78374972 2.31882442 1 2 C0.67 1.34 0.34 0.68 0 0 Z " fill="#FD9449" transform="translate(538,203)"/>
<path d="M0 0 C2.0625 0.4375 2.0625 0.4375 4 1 C4 2.32 4 3.64 4 5 C2.68 5.33 1.36 5.66 0 6 C-0.38218767 4.34385343 -0.71395102 2.67542976 -1 1 C-0.67 0.67 -0.34 0.34 0 0 Z " fill="#FD9E46" transform="translate(827,582)"/>
<path d="M0 0 C0.33 0 0.66 0 1 0 C0.67 4.29 0.34 8.58 0 13 C-0.66 11.68 -1.32 10.36 -2 9 C-2.99 9.495 -2.99 9.495 -4 10 C-3.52449439 8.51965236 -3.04448784 7.04074979 -2.5625 5.5625 C-2.29566406 4.73878906 -2.02882813 3.91507813 -1.75390625 3.06640625 C-1 1 -1 1 0 0 Z " fill="#F06315" transform="translate(468,649)"/>
<path d="M0 0 C-1.70599279 0.73591846 -3.41284028 1.46995185 -5.125 2.19140625 C-6.66504522 2.85555075 -8.1804688 3.57650802 -9.6875 4.3125 C-12 5 -12 5 -14.14453125 4.04296875 C-14.75683594 3.69878906 -15.36914062 3.35460937 -16 3 C-13.71068726 2.30364247 -11.4191243 1.61765623 -9.125 0.9375 C-8.47402344 0.73833984 -7.82304687 0.53917969 -7.15234375 0.33398438 C-2.2265625 -1.11328125 -2.2265625 -1.11328125 0 0 Z " fill="#FC9B55" transform="translate(449,212)"/>
<path d="M0 0 C0.99 0.99 1.98 1.98 3 3 C-1.95 2.67 -6.9 2.34 -12 2 C-12 1.67 -12 1.34 -12 1 C-7.94762072 0.22811823 -4.12401319 -0.36657895 0 0 Z " fill="#FDF1E6" transform="translate(544,201)"/>
<path d="M0 0 C0.66 0.33 1.32 0.66 2 1 C-0.65654657 4.73884332 -2.58110387 6.64978174 -7 8 C-3.375 2.25 -3.375 2.25 0 0 Z " fill="#FEF5EF" transform="translate(555,793)"/>
<path d="M0 0 C0 0.66 0 1.32 0 2 C-4.455 2.495 -4.455 2.495 -9 3 C-9 2.34 -9 1.68 -9 1 C-6.04335481 -0.4783226 -3.25770263 -0.06032783 0 0 Z " fill="#FC7F36" transform="translate(420,763)"/>
<path d="M0 0 C-3.6441774 2.4294516 -5.71241272 2.16179575 -10 2 C-10.33 1.34 -10.66 0.68 -11 0 C-6.94952424 -1.35015859 -4.2079832 -0.62084998 0 0 Z " fill="#FD9144" transform="translate(772,535)"/>
<path d="M0 0 C0.66 0 1.32 0 2 0 C2.33 2.97 2.66 5.94 3 9 C2.34 9 1.68 9 1 9 C0.67 6.03 0.34 3.06 0 0 Z " fill="#FFFDFB" transform="translate(728,348)"/>
<path d="M0 0 C3.3 0 6.6 0 10 0 C10 0.33 10 0.66 10 1 C8.7625 1.12375 7.525 1.2475 6.25 1.375 C3.1237803 1.75746305 0.71120763 2.30549523 -2 4 C-1.34 2.68 -0.68 1.36 0 0 Z " fill="#FDEBD4" transform="translate(783,523)"/>
<path d="M0 0 C1.14926266 0.95421808 2.29430541 1.91352045 3.4375 2.875 C4.07558594 3.40867187 4.71367187 3.94234375 5.37109375 4.4921875 C7 6 7 6 8 8 C3.58110387 6.64978174 1.65654657 4.73884332 -1 1 C-0.67 0.67 -0.34 0.34 0 0 Z " fill="#FA711D" transform="translate(231,733)"/>
<path d="M0 0 C2.475 0.99 2.475 0.99 5 2 C4.67 4.31 4.34 6.62 4 9 C2.47700477 6.06279492 1.19899698 3.0831351 0 0 Z " fill="#FB9B48" transform="translate(762,685)"/>
<path d="M0 0 C1.0828125 0.37125 1.0828125 0.37125 2.1875 0.75 C-0.81867269 3.75617269 -3.63631598 3.34585316 -7.8125 3.75 C-3.50480769 -0.31153846 -3.50480769 -0.31153846 0 0 Z " fill="#FD7519" transform="translate(295.8125,672.25)"/>
<path d="M0 0 C0 0.99 0 1.98 0 3 C-2.5 5.1875 -2.5 5.1875 -5 7 C-5.66 6.67 -6.32 6.34 -7 6 C-4.69 4.02 -2.38 2.04 0 0 Z " fill="#FB863D" transform="translate(772,480)"/>
</svg>
